<?xml version="1.0" encoding="UTF-8"?>
<svg id="Layer_2" data-name="Layer 2" xmlns="http://www.w3.org/2000/svg" viewBox="0 0 1022.66 652.7">
  <defs>
    <style>
      .cls-1 {
        fill: #ffe000;
      }

      .cls-2 {
        fill: #dcf6fa;
      }

      .cls-3 {
        fill: #ff2d49;
      }
    </style>
  </defs>
  <g id="Layer_1-2" data-name="Layer 1">
    <g>
      <path class="cls-1" d="M71.17,295.17c-3.67-16.16-3.5-32.59,1.55-47.09,0,0,0,0,0,0-11.98-4.97-31.47-125.23-22.8-142.01s51.54-25.69,66.78-19.09c13.59,5.89,82.06,60.03,115.58,96.05,39.15-7.66,84.76-16.31,132.7-24.86-11.09-38.53-33.86-121.15-29.29-135.34C341.69,4.19,393.52-.5,422.88.04c21.5.4,63.92,36.56,117.95,82.56,11.03-5.2,18.23-8.08,24.1-7.2,6.54-2.95,33.84-13.09,49.48,19.56,3.23,6.75,6.09,15.44,7.78,24.5,62.82-6.74,114.65-9.01,142.42-3.34,23.59,4.86,49.06,14.16,74.4,26.15,34.09,16.07,68.07,36.93,97.18,58.11,23.65,17.11,44.12,34.47,58.98,49.61,12.87,13.17,21.55,24.66,24.37,32.99,19.93,58.41-59.17,124.84-146.24,149.28-79.72,22.38-180.57,27.11-282.62,21.98,5.16,36.49-1.73,93.33-33.91,107.2-2.43,1.05-4.99,1.87-7.72,2.4-.2.04-.4.08-.6.11-.38.07-.74.1-1.11.16-32.71,5.51-77.32,1.35-115.52-18.93,3.98,36.49-3.63,89.31-34.48,102.61-2.43,1.05-4.99,1.88-7.72,2.4-.2.04-.4.08-.6.11-.38.07-.74.1-1.11.16-35.13,5.91-83.98.68-123.89-23.7-8.27,4.54-15.04,7.74-19.91,9.29-50.91,16.22-103.22-14.1-116.7-29.22-9.76-10.94,50.22-133.18,94.7-207.54-41.38-10.46-73.73-20.72-92.82-29.14-6.47-2.85-12.56-6.62-18.24-11.05-24.28,9.17-48.57,16.27-57.6,18.91-21.13,6.16-48.73-4.06-53.25-16.11-3.71-9.9,41.81-48.38,70.96-66.74Z"/>
      <path class="cls-3" d="M72.72,247.94c10.34,4.26,143.18-18.89,167.74-41.77,0-.01.01-.02.02-.02,1.16-1.08,2.06-2.17,2.71-3.25.53-.89.89-1.78,1.05-2.66.02-.1.05-.21.07-.32.2-1.64-.26-3.26-1.49-4.84-1.44-1.86-3.05-3.82-4.81-5.86-.89-1.02-1.8-2.06-2.76-3.11s-1.94-2.14-2.95-3.22c39.15-7.66,84.76-16.31,132.7-24.86,74.27-13.24,154.09-26.23,224.11-34.88,8.06-.99,15.99-1.93,23.77-2.81-1.17-6.7-3.24-13.17-5.63-18.15-11.54-24.09-32.09-15.18-35.48-13.56-5.08,2.43-7.44,7.34-8.06,13.26-3.63-3.07-7.21-6.11-10.76-9.11-4.1-3.49-8.14-6.93-12.13-10.32,11.03-5.2,18.23-8.09,24.1-7.2,6.54-2.95,33.84-13.09,49.48,19.56,3.23,6.75,6.09,15.44,7.78,24.5,62.82-6.74,114.65-9.02,142.42-3.34,23.59,4.86,49.06,14.16,74.4,26.15-40.87,24.61-124.71,41.26-139.17,42.89-6.46.72-9.16,4.89-9.18,10.71v.05c0,.91.07,1.85.19,2.83.16,1.24.42,2.55.77,3.89.21.8.45,1.6.71,2.42.13.4.27.8.41,1.2.67,1.85,1.47,3.76,2.41,5.68.61,1.25,1.28,2.51,1.99,3.77.63,1.09,1.28,2.19,1.97,3.28.52.8,1.05,1.6,1.59,2.4.24.36.49.71.74,1.07.64.89,1.29,1.76,1.96,2.63.19.24.38.49.58.73,1.29,1.61,2.63,3.18,4.04,4.68,16.86,6.28,33.47,10.37,49.59,12.73,6.44.95,12.81,1.61,19.08,2.04,6.27.42,12.45.59,18.51.54,24.25-.19,46.72-3.91,66.4-9.3,17.22-4.72,32.3-10.74,44.56-16.82,14.02-6.95,24.36-13.99,30.02-19.29,23.65,17.11,44.12,34.47,58.98,49.62-.28.26-.57.5-.85.76-3.41,3.17-7.01,6.23-10.72,9.24-11.63,9.42-24.69,18.06-39.01,25.97-8.05,4.45-16.45,8.69-25.26,12.69-7.47,3.39-15.2,6.62-23.17,9.7-3.98,1.54-8.03,3.04-12.13,4.5-19.68,7.02-40.71,13.17-62.74,18.55-5.51,1.34-11.07,2.66-16.7,3.91-70.43,15.62-150.26,23.85-230.8,27.22-.02-7.12-3.07-13.46-8.28-18.73-1.74-1.76-3.71-3.39-5.9-4.9-6.56-4.52-14.98-7.86-24.41-9.72-3.14-.62-6.39-1.07-9.72-1.35-8.69-.73-31.17-1.38-59.6-1.48-3.16-.01-6.4-.02-9.69-.02-24.72.02-52.98.46-80.25,1.57-10.91.45-21.66,1.01-31.96,1.68-3.44.23-6.82.47-10.15.73-3.32.26-6.59.53-9.78.81-3.19.29-6.32.59-9.35.91-1.52.16-3.02.32-4.5.49-7.39.83-14.23,1.77-20.36,2.81-13.49,2.3-23.53,5.14-28.33,8.62-2.29,1.66-5.19,4.72-8.59,8.93-.48.6-.98,1.23-1.48,1.88-2.53-.2-5.03-.42-7.52-.63-7.46-.63-14.77-1.28-21.89-1.94-4.76-.44-9.43-.88-14.02-1.33-2.3-.23-4.57-.45-6.82-.68-6.76-.68-13.33-1.36-19.7-2.06-2.12-.23-4.22-.46-6.3-.69-4.16-.46-8.22-.93-12.18-1.39-5.95-.7-11.68-1.39-17.18-2.08,1.07-.56,2.11-1.11,3.13-1.68,3.06-1.68,5.91-3.38,8.49-5.09,1.72-1.14,3.33-2.28,4.79-3.43,1.47-1.15,2.8-2.29,3.97-3.43,3.53-3.43,5.67-6.85,5.97-10.18.1-1.11-.01-2.21-.34-3.3-1.68-5.54-6.38-10.76-12.82-15.33-.81-.57-1.64-1.13-2.5-1.68-1.71-1.1-3.53-2.16-5.43-3.17-.95-.51-1.92-1-2.9-1.48-19.74-9.62-46.56-14.2-60.92-8.68-1.53.59-3.33,1.44-5.23,2.42-1.93.98-3.98,2.09-6.22,3.42-1.48.88-3.03,1.82-4.61,2.82-3.67-16.16-3.5-32.59,1.55-47.09ZM292.85,609.44c-10.84,6.94-20.58,12.81-28.82,17.34,39.9,24.38,88.76,29.61,123.89,23.7.38-.06.74-.09,1.11-.16.2-.04.4-.07.6-.11,2.73-.53,5.29-1.35,7.72-2.4,30.85-13.3,38.46-66.11,34.48-102.61,38.2,20.28,82.81,24.43,115.52,18.93.37-.06.73-.09,1.11-.16.2-.03.4-.07.6-.11,2.73-.53,5.29-1.35,7.72-2.4,32.18-13.87,39.07-70.71,33.91-107.2-.23-1.67-.49-3.32-.78-4.9-.69-3.82-1.54-7.38-2.52-10.69-.49-1.66-1.02-3.25-1.57-4.79-3.35-9.21-7.83-16.29-12.91-21.7-.85-.9-1.71-1.76-2.59-2.57-1.76-1.63-3.57-3.07-5.42-4.36-.93-.65-1.86-1.26-2.8-1.82-1.89-1.14-3.8-2.13-5.71-2.98-.96-.43-1.92-.82-2.88-1.19-2.77,3.17-5.8,6.48-9.05,9.92s-6.75,7.01-10.45,10.68c1.26.02,2.59.09,3.98.22.92.09,1.87.2,2.84.35,1.45.22,2.94.53,4.45.92,1.01.26,2.02.57,3.04.92,1.53.53,3.06,1.16,4.58,1.92,1.02.51,2.03,1.07,3.02,1.69,1,.62,1.98,1.3,2.95,2.05.48.38.96.77,1.44,1.17,1.42,1.22,2.8,2.6,4.11,4.15,3.05,3.61,5.75,8.15,7.82,13.86,1.19,3.26,2.17,6.9,2.91,10.96.15.85.3,1.72.43,2.62.4,2.67.71,5.51.92,8.46.21,2.95.31,6.02.3,9.14,0,1.04-.03,2.09-.05,3.15-.06,2.1-.18,4.23-.34,6.36s-.39,4.26-.68,6.39c-.42,3.18-.98,6.33-1.68,9.41-1.41,6.16-3.38,11.99-6.02,17.11-.88,1.7-1.83,3.32-2.86,4.85-1.55,2.29-3.27,4.36-5.17,6.17-1.9,1.8-3.98,3.34-6.26,4.55-.76.41-1.54.78-2.34,1.1-1.6.66-3.3,1.18-5.08,1.52-.14.03-.28.06-.42.08-.75.14-1.49.24-2.22.32-.73.08-1.45.14-2.16.16-1.42.05-2.81,0-4.15-.16-1.35-.16-2.66-.41-3.93-.76-2.54-.7-4.94-1.78-7.19-3.18-1.68-1.05-3.28-2.29-4.8-3.69-6.07-5.59-10.8-13.78-14.22-23.19-.29-.79-.56-1.58-.82-2.38-.54-1.6-1.03-3.23-1.49-4.89s-.88-3.34-1.27-5.04c-.39-1.7-.74-3.42-1.05-5.15-1.08-5.96-1.81-12.89-1.97-20.04-.15-7.15.28-14.51,1.55-21.33-2.87,2.56-5.79,5.14-8.77,7.74-2.98,2.6-6.01,5.22-9.08,7.86-7.05,6.06-14.34,12.2-21.8,18.39-7.46,6.18-15.1,12.41-22.83,18.61-5.16,4.14-10.36,8.28-15.6,12.4-4.87,3.83-9.76,7.65-14.66,11.43,2.05,3.66,3.8,7.95,5.12,13.01.44,1.69.83,3.46,1.17,5.32,1.7,9.39,2.19,21.22.95,32.93-.11,1.06-.24,2.13-.38,3.19-.43,3.18-.98,6.34-1.69,9.41-1.4,6.16-3.38,11.99-6.02,17.11-.88,1.7-1.83,3.33-2.86,4.85-4.63,6.86-10.82,11.78-18.85,13.34-.15.03-.29.05-.43.08-1.49.27-2.95.43-4.38.48-.71.03-1.41.02-2.1,0-2.77-.11-5.39-.63-7.86-1.52-7.41-2.66-13.48-8.59-18.21-16.44-.79-1.31-1.55-2.67-2.26-4.07-1.43-2.81-2.72-5.81-3.85-8.95-.29-.78-.56-1.57-.83-2.38-1.59-4.8-2.86-9.89-3.8-15.07-.11-.6-.21-1.23-.31-1.85-4.92,3.49-9.76,6.9-14.49,10.18-6.34,4.4-12.49,8.6-18.43,12.57-5.93,3.97-11.63,7.71-17.05,11.18Z"/>
      <path class="cls-2" d="M563.71,101.96c.62-5.91,2.98-10.82,8.06-13.26,3.39-1.62,23.94-10.54,35.48,13.56,2.38,4.97,4.46,11.44,5.63,18.15-7.78.88-15.71,1.81-23.77,2.81-8.67-7.17-17.13-14.27-25.39-21.26ZM936.2,200.31c-29.11-21.18-63.09-42.05-97.18-58.11-40.87,24.61-124.71,41.26-139.17,42.89-6.46.73-9.16,4.89-9.18,10.71v.05c0,.91.07,1.85.19,2.83.16,1.25.42,2.55.77,3.89.21.8.45,1.6.71,2.43.13.4.27.8.41,1.2.67,1.85,1.47,3.76,2.41,5.68.61,1.25,1.28,2.51,1.99,3.77.63,1.1,1.28,2.19,1.97,3.28.52.8,1.05,1.6,1.59,2.4.24.36.49.71.74,1.07.64.89,1.29,1.76,1.96,2.63.19.24.38.49.58.73,1.29,1.61,2.63,3.18,4.04,4.68,16.86,6.28,33.47,10.37,49.59,12.73,6.44.95,12.81,1.61,19.08,2.04,6.27.42,12.45.59,18.51.54,24.25-.19,46.72-3.9,66.4-9.3,17.22-4.72,32.3-10.74,44.56-16.82,14.02-6.95,24.36-13.99,30.02-19.28ZM604.95,240.15c-2.68-14.83-10.54-27.72-21.1-29.81-8.16-1.61-14.97-1.75-20.64-.72-22.97,4.15-26.82,27.3-23.18,47.42,5.01,27.68,15.99,36.72,39.14,32.54,23.18-4.19,29.53-28.7,25.78-49.42ZM513.98,254.96c-2.64-14.62-11.07-28.35-22.26-31.88-7.87-2.48-14.47-2.98-19.94-2-19.59,3.54-24.55,26.23-21.05,45.6,4.57,25.27,16.91,33.27,41.59,28.81,19.49-3.53,24.88-22.69,21.65-40.53ZM420.61,258.97c-4.02-22.22-15.93-29.33-33.99-26.06-2.44.44-4.73,1.06-6.72,1.81-11.33,4.22-15.42,19.58-12.78,34.14,3.31,18.29,16.25,32.27,34.7,28.93,17.21-3.11,21.81-22.2,18.8-38.81ZM345.24,266.88c-2.99-16.55-12.64-28.26-29.52-25.2-.96.18-1.91.36-2.82.52-.91.17-1.79.31-2.6.42-.61.08-1.22.17-1.81.28-17.81,3.22-22.65,18.75-19.94,33.67,3.02,16.7,14.37,32.74,32.79,29.41,20.75-3.75,26.88-22.58,23.9-39.09ZM262.99,273.1c-2.49-13.77-11.04-26.14-26.57-23.33-2.02.36-4.16.98-6.42,1.9-10.91,4.4-14.43,17.33-12.21,29.59,2.64,14.62,13.45,28.29,29.58,25.38,15.38-2.78,18.35-18.36,15.61-33.53ZM537.98,419.98c-1.39-.13-2.72-.2-3.98-.22-9.4,9.33-20.15,19.35-31.85,29.8-1.27,6.82-1.7,14.19-1.55,21.33.16,7.15.89,14.07,1.97,20.04.31,1.73.67,3.45,1.05,5.15.39,1.7.81,3.39,1.27,5.04s.95,3.29,1.49,4.89c.27.8.54,1.59.82,2.38,3.42,9.41,8.15,17.59,14.22,23.19,1.52,1.4,3.12,2.63,4.8,3.69,2.25,1.4,4.65,2.48,7.19,3.18,1.27.35,2.58.6,3.93.76,1.34.16,2.73.21,4.15.16.71-.03,1.43-.08,2.16-.16s1.47-.19,2.22-.32l.42-.08c1.79-.34,3.48-.86,5.08-1.52.8-.33,1.58-.7,2.34-1.1,2.28-1.21,4.36-2.75,6.26-4.55,1.9-1.8,3.62-3.88,5.17-6.17,1.03-1.53,1.98-3.15,2.86-4.85,2.64-5.11,4.61-10.95,6.02-17.1.7-3.08,1.26-6.23,1.68-9.42.29-2.12.51-4.25.68-6.38s.28-4.26.34-6.36c.03-1.05.05-2.1.05-3.15.01-3.13-.09-6.19-.3-9.14-.2-2.95-.52-5.79-.92-8.47-.14-.89-.28-1.77-.43-2.61-.73-4.06-1.72-7.7-2.91-10.96-2.07-5.71-4.77-10.25-7.82-13.86-1.31-1.55-2.69-2.92-4.11-4.15-.47-.41-.95-.8-1.44-1.17-.97-.74-1.95-1.43-2.95-2.05-.99-.63-2.01-1.18-3.02-1.69-1.52-.76-3.06-1.4-4.58-1.92-1.02-.35-2.04-.66-3.04-.92-1.51-.4-3-.7-4.45-.92-.97-.15-1.92-.27-2.84-.35ZM414.54,539.01c-1.32-5.06-3.07-9.35-5.12-13.01-22.63,17.49-45.35,34.35-66.59,49.44.1.63.2,1.24.31,1.85.94,5.19,2.21,10.27,3.8,15.07.27.8.54,1.59.83,2.38,1.14,3.14,2.42,6.14,3.85,8.95.71,1.41,1.47,2.77,2.26,4.07,4.73,7.84,10.8,13.78,18.21,16.44,2.47.89,5.09,1.41,7.86,1.52.69.03,1.39.03,2.1,0,1.42-.05,2.88-.21,4.38-.48.14-.03.28-.05.43-.08,8.03-1.56,14.22-6.47,18.85-13.34,1.03-1.53,1.98-3.15,2.86-4.85,2.64-5.11,4.61-10.95,6.02-17.11.7-3.07,1.26-6.23,1.69-9.41.14-1.06.27-2.13.38-3.19,1.24-11.71.74-23.54-.95-32.93-.34-1.86-.73-3.64-1.17-5.32Z"/>
    </g>
  </g>
</svg>