<svg xmlns="http://www.w3.org/2000/svg" xmlns:xlink="http://www.w3.org/1999/xlink" width="1920" zoomAndPan="magnify" viewBox="0 0 1440 809.999993" height="1080" preserveAspectRatio="xMidYMid meet" version="1.0"><rect x="-144" width="1728" fill="#ffffff" y="-80.999999" height="971.999992" fill-opacity="1"/><rect x="-144" width="1728" fill="#ffffff" y="-80.999999" height="971.999992" fill-opacity="1"/><path fill="#ffe000" d="M 1006.683594 407.789062 C 1003.292969 416.828125 982.589844 424.492188 966.746094 419.875 C 959.972656 417.898438 941.753906 412.574219 923.546875 405.695312 C 919.289062 409.019531 914.71875 411.847656 909.867188 413.984375 C 895.546875 420.296875 871.285156 427.992188 840.25 435.839844 C 873.605469 491.609375 918.59375 583.289062 911.273438 591.492188 C 901.164062 602.828125 861.933594 625.574219 823.75 613.40625 C 820.101562 612.246094 815.019531 609.847656 808.820312 606.441406 C 778.894531 624.726562 742.253906 628.648438 715.90625 624.214844 C 715.625 624.171875 715.351562 624.144531 715.070312 624.09375 C 714.921875 624.066406 714.773438 624.039062 714.621094 624.007812 C 712.574219 623.613281 710.652344 622.992188 708.828125 622.207031 C 685.6875 612.234375 679.984375 572.621094 682.96875 545.25 C 654.316406 560.457031 620.863281 563.574219 596.328125 559.445312 C 596.050781 559.402344 595.777344 559.375 595.496094 559.324219 C 595.347656 559.300781 595.195312 559.269531 595.046875 559.242188 C 593 558.84375 591.078125 558.226562 589.253906 557.441406 C 565.121094 547.039062 559.953125 504.410156 563.824219 477.042969 C 487.285156 480.886719 411.648438 477.339844 351.859375 460.554688 C 286.554688 442.226562 227.230469 392.402344 242.179688 348.59375 C 244.292969 342.34375 250.804688 333.726562 260.457031 323.851562 C 271.605469 312.496094 286.957031 299.472656 304.695312 286.640625 C 326.53125 270.753906 352.011719 255.105469 377.582031 243.054688 C 396.589844 234.066406 415.691406 227.09375 433.382812 223.445312 C 454.214844 219.191406 493.085938 220.894531 540.199219 225.949219 C 541.46875 219.152344 543.613281 212.636719 546.035156 207.574219 C 557.765625 183.085938 578.246094 190.695312 583.148438 192.90625 C 587.550781 192.242188 592.953125 194.40625 601.222656 198.304688 C 641.742188 163.804688 673.558594 136.683594 689.683594 136.386719 C 711.707031 135.980469 750.578125 139.496094 755.074219 153.46875 C 758.5 164.117188 741.425781 226.082031 733.105469 254.976562 C 769.0625 261.386719 803.273438 267.878906 832.632812 273.621094 C 857.773438 246.605469 909.125 206 919.320312 201.582031 C 930.753906 196.628906 962.902344 203.316406 969.40625 215.898438 C 975.910156 228.480469 961.296875 318.679688 952.308594 322.40625 C 952.308594 322.410156 952.304688 322.410156 952.304688 322.410156 C 956.089844 333.289062 956.21875 345.613281 953.464844 357.730469 C 975.324219 371.503906 1009.464844 400.367188 1006.683594 407.789062 Z M 1006.683594 407.789062 " fill-opacity="1" fill-rule="nonzero"/><path fill="#ff2d49" d="M 953.464844 357.632812 C 952.273438 356.878906 951.117188 356.171875 950.003906 355.515625 C 948.320312 354.523438 946.785156 353.691406 945.335938 352.953125 C 943.90625 352.222656 942.558594 351.582031 941.410156 351.140625 C 930.636719 347 910.523438 350.4375 895.71875 357.652344 C 894.980469 358.011719 894.253906 358.382812 893.542969 358.761719 C 892.117188 359.519531 890.753906 360.316406 889.46875 361.140625 C 888.824219 361.554688 888.199219 361.976562 887.59375 362.402344 C 882.757812 365.832031 879.238281 369.746094 877.976562 373.898438 C 877.726562 374.714844 877.644531 375.539062 877.71875 376.375 C 877.941406 378.871094 879.550781 381.4375 882.195312 384.011719 C 883.078125 384.871094 884.074219 385.726562 885.175781 386.585938 C 886.273438 387.445312 887.476562 388.300781 888.769531 389.15625 C 890.703125 390.4375 892.839844 391.710938 895.136719 392.972656 C 895.898438 393.394531 896.679688 393.8125 897.480469 394.230469 C 893.355469 394.746094 889.054688 395.265625 884.59375 395.789062 C 881.621094 396.132812 878.574219 396.480469 875.457031 396.828125 C 873.902344 397 872.324219 397.171875 870.734375 397.34375 C 865.957031 397.863281 861.027344 398.378906 855.957031 398.886719 C 854.269531 399.054688 852.5625 399.222656 850.839844 399.394531 C 847.398438 399.730469 843.894531 400.0625 840.328125 400.390625 C 834.984375 400.886719 829.507812 401.371094 823.910156 401.84375 C 822.042969 402 820.164062 402.160156 818.269531 402.3125 C 817.890625 401.828125 817.519531 401.355469 817.15625 400.90625 C 814.605469 397.746094 812.425781 395.453125 810.710938 394.207031 C 807.109375 391.597656 799.582031 389.46875 789.464844 387.742188 C 784.867188 386.960938 779.734375 386.257812 774.195312 385.636719 C 773.085938 385.511719 771.960938 385.386719 770.820312 385.269531 C 768.542969 385.03125 766.199219 384.804688 763.804688 384.589844 C 761.410156 384.378906 758.960938 384.175781 756.46875 383.984375 C 753.976562 383.789062 751.4375 383.609375 748.859375 383.4375 C 741.132812 382.929688 733.070312 382.511719 724.886719 382.175781 C 704.433594 381.339844 683.238281 381.011719 664.699219 380.996094 C 662.226562 380.996094 659.800781 381 657.429688 381.007812 C 636.101562 381.085938 619.246094 381.570312 612.726562 382.121094 C 610.230469 382.332031 607.792969 382.671875 605.4375 383.136719 C 598.367188 384.535156 592.046875 387.039062 587.128906 390.429688 C 585.488281 391.558594 584.007812 392.785156 582.703125 394.101562 C 578.792969 398.054688 576.503906 402.8125 576.492188 408.152344 C 516.085938 405.628906 456.210938 399.453125 403.390625 387.738281 C 399.164062 386.796875 394.996094 385.8125 390.863281 384.804688 C 374.335938 380.765625 358.566406 376.15625 343.804688 370.890625 C 340.730469 369.792969 337.695312 368.667969 334.707031 367.515625 C 328.730469 365.207031 322.933594 362.785156 317.332031 360.242188 C 310.726562 357.246094 304.429688 354.0625 298.390625 350.726562 C 287.648438 344.796875 277.855469 338.316406 269.132812 331.25 C 266.351562 328.996094 263.652344 326.695312 261.09375 324.320312 C 260.886719 324.128906 260.664062 323.949219 260.457031 323.753906 C 271.605469 312.394531 286.957031 299.375 304.695312 286.539062 C 308.9375 290.511719 316.691406 295.789062 327.207031 301.003906 C 336.40625 305.5625 347.714844 310.078125 360.628906 313.621094 C 375.386719 317.667969 392.238281 320.453125 410.425781 320.597656 C 414.972656 320.632812 419.605469 320.503906 424.308594 320.191406 C 429.007812 319.875 433.785156 319.375 438.617188 318.664062 C 450.703125 316.890625 463.160156 313.820312 475.808594 309.113281 C 476.863281 307.992188 477.871094 306.816406 478.835938 305.605469 C 478.984375 305.421875 479.125 305.238281 479.269531 305.054688 C 479.773438 304.40625 480.261719 303.75 480.738281 303.085938 C 480.925781 302.820312 481.113281 302.554688 481.296875 302.285156 C 481.707031 301.691406 482.105469 301.089844 482.492188 300.488281 C 483.011719 299.671875 483.503906 298.847656 483.972656 298.027344 C 484.507812 297.082031 485.003906 296.140625 485.464844 295.203125 C 486.167969 293.761719 486.773438 292.335938 487.273438 290.945312 C 487.378906 290.644531 487.484375 290.34375 487.582031 290.042969 C 487.78125 289.429688 487.960938 288.824219 488.117188 288.226562 C 488.378906 287.222656 488.574219 286.246094 488.695312 285.3125 C 488.789062 284.582031 488.839844 283.871094 488.839844 283.191406 C 488.839844 283.179688 488.839844 283.167969 488.839844 283.15625 C 488.828125 278.792969 486.800781 275.667969 481.957031 275.125 C 471.117188 273.902344 408.234375 261.414062 377.582031 242.957031 C 396.589844 233.964844 415.691406 226.992188 433.382812 223.347656 C 454.214844 219.089844 493.085938 220.792969 540.199219 225.851562 C 541.46875 219.054688 543.613281 212.539062 546.035156 207.476562 C 557.765625 182.988281 578.246094 190.597656 583.148438 192.808594 C 587.550781 192.140625 592.953125 194.308594 601.222656 198.207031 C 598.234375 200.75 595.207031 203.328125 592.128906 205.945312 C 589.472656 208.199219 586.78125 210.480469 584.0625 212.78125 C 583.597656 208.347656 581.828125 204.664062 578.019531 202.839844 C 575.476562 201.625 560.066406 194.9375 551.410156 213.007812 C 549.625 216.738281 548.066406 221.589844 547.191406 226.617188 C 553.023438 227.273438 558.972656 227.976562 565.019531 228.722656 C 617.535156 235.207031 677.402344 244.945312 733.105469 254.878906 C 769.0625 261.289062 803.273438 267.777344 832.632812 273.523438 C 831.871094 274.339844 831.132812 275.148438 830.417969 275.941406 C 829.703125 276.734375 829.015625 277.515625 828.351562 278.277344 C 827.03125 279.808594 825.820312 281.277344 824.742188 282.671875 C 823.816406 283.863281 823.46875 285.078125 823.621094 286.304688 C 823.632812 286.382812 823.65625 286.464844 823.671875 286.542969 C 823.789062 287.203125 824.058594 287.867188 824.457031 288.535156 C 824.945312 289.34375 825.617188 290.160156 826.488281 290.972656 C 826.492188 290.976562 826.496094 290.980469 826.5 290.988281 C 844.917969 308.144531 944.546875 325.507812 952.304688 322.3125 C 956.089844 333.1875 956.21875 345.511719 953.464844 357.632812 Z M 774.414062 585.050781 C 769.964844 582.074219 765.347656 578.925781 760.59375 575.625 C 757.042969 573.160156 753.414062 570.609375 749.722656 567.988281 C 749.648438 568.457031 749.570312 568.925781 749.488281 569.378906 C 748.785156 573.269531 747.832031 577.082031 746.636719 580.683594 C 746.4375 581.285156 746.230469 581.878906 746.015625 582.464844 C 745.164062 584.820312 744.199219 587.070312 743.125 589.179688 C 742.589844 590.234375 742.023438 591.253906 741.429688 592.234375 C 737.878906 598.117188 733.328125 602.566406 727.769531 604.5625 C 725.917969 605.226562 723.953125 605.617188 721.875 605.699219 C 721.355469 605.71875 720.832031 605.722656 720.296875 605.703125 C 719.230469 605.664062 718.136719 605.546875 717.015625 605.34375 C 716.910156 605.324219 716.804688 605.304688 716.695312 605.285156 C 710.671875 604.113281 706.03125 600.425781 702.558594 595.277344 C 701.785156 594.132812 701.070312 592.914062 700.410156 591.636719 C 698.433594 587.800781 696.949219 583.421875 695.898438 578.804688 C 695.371094 576.5 694.953125 574.132812 694.632812 571.746094 C 694.527344 570.949219 694.433594 570.152344 694.347656 569.355469 C 693.417969 560.574219 693.789062 551.699219 695.0625 544.660156 C 695.316406 543.261719 695.609375 541.933594 695.9375 540.667969 C 696.925781 536.871094 698.238281 533.652344 699.777344 530.910156 C 696.105469 528.070312 692.4375 525.210938 688.785156 522.335938 C 684.859375 519.246094 680.957031 516.144531 677.085938 513.039062 C 671.285156 508.382812 665.558594 503.714844 659.960938 499.078125 C 654.367188 494.441406 648.898438 489.832031 643.613281 485.289062 C 641.308594 483.308594 639.039062 481.339844 636.804688 479.390625 C 634.574219 477.4375 632.382812 475.5 630.230469 473.582031 C 631.179688 478.699219 631.503906 484.222656 631.390625 489.582031 C 631.273438 494.941406 630.722656 500.140625 629.914062 504.609375 C 629.679688 505.90625 629.414062 507.195312 629.125 508.472656 C 628.835938 509.746094 628.519531 511.007812 628.175781 512.25 C 627.832031 513.492188 627.460938 514.714844 627.058594 515.917969 C 626.859375 516.515625 626.65625 517.109375 626.441406 517.699219 C 623.878906 524.757812 620.328125 530.894531 615.777344 535.089844 C 614.636719 536.136719 613.4375 537.066406 612.175781 537.855469 C 610.488281 538.90625 608.691406 539.714844 606.785156 540.242188 C 605.832031 540.503906 604.847656 540.695312 603.835938 540.8125 C 602.828125 540.929688 601.789062 540.972656 600.722656 540.933594 C 600.1875 540.917969 599.648438 540.878906 599.101562 540.816406 C 598.554688 540.757812 598 540.679688 597.4375 540.578125 C 597.332031 540.558594 597.226562 540.535156 597.121094 540.515625 C 595.78125 540.257812 594.511719 539.871094 593.308594 539.375 C 592.707031 539.128906 592.121094 538.851562 591.550781 538.546875 C 589.84375 537.636719 588.277344 536.484375 586.855469 535.132812 C 585.429688 533.78125 584.140625 532.226562 582.980469 530.507812 C 582.210938 529.363281 581.496094 528.148438 580.835938 526.871094 C 578.855469 523.035156 577.375 518.65625 576.320312 514.039062 C 575.796875 511.730469 575.375 509.363281 575.058594 506.980469 C 574.84375 505.386719 574.675781 503.789062 574.550781 502.191406 C 574.425781 500.59375 574.339844 499 574.292969 497.421875 C 574.273438 496.632812 574.257812 495.84375 574.253906 495.0625 C 574.246094 492.71875 574.320312 490.421875 574.476562 488.207031 C 574.628906 485.992188 574.863281 483.863281 575.164062 481.859375 C 575.265625 481.1875 575.375 480.535156 575.488281 479.894531 C 576.039062 476.847656 576.777344 474.117188 577.667969 471.671875 C 579.222656 467.390625 581.246094 463.984375 583.535156 461.277344 C 584.519531 460.117188 585.550781 459.085938 586.617188 458.167969 C 586.972656 457.863281 587.332031 457.570312 587.695312 457.289062 C 588.421875 456.730469 589.160156 456.21875 589.910156 455.753906 C 590.65625 455.289062 591.414062 454.867188 592.175781 454.488281 C 593.316406 453.917969 594.46875 453.441406 595.613281 453.046875 C 596.378906 452.78125 597.140625 452.550781 597.894531 452.355469 C 599.027344 452.058594 600.144531 451.832031 601.230469 451.664062 C 601.957031 451.550781 602.667969 451.464844 603.359375 451.398438 C 604.398438 451.300781 605.398438 451.25 606.34375 451.234375 C 603.566406 448.480469 600.945312 445.804688 598.503906 443.226562 C 596.0625 440.648438 593.792969 438.164062 591.714844 435.785156 C 590.996094 436.058594 590.273438 436.355469 589.554688 436.675781 C 588.117188 437.320312 586.683594 438.0625 585.269531 438.914062 C 584.566406 439.339844 583.863281 439.796875 583.167969 440.28125 C 581.78125 441.25 580.421875 442.335938 579.101562 443.554688 C 578.445312 444.164062 577.796875 444.808594 577.160156 445.484375 C 573.347656 449.542969 569.988281 454.851562 567.476562 461.757812 C 567.058594 462.910156 566.664062 464.105469 566.296875 465.347656 C 565.558594 467.832031 564.921875 470.5 564.40625 473.367188 C 564.191406 474.554688 564 475.789062 563.824219 477.042969 C 559.953125 504.410156 565.121094 547.039062 589.253906 557.441406 C 591.078125 558.226562 593 558.84375 595.046875 559.242188 C 595.195312 559.269531 595.347656 559.300781 595.496094 559.324219 C 595.777344 559.375 596.050781 559.402344 596.328125 559.445312 C 620.863281 563.574219 654.316406 560.457031 682.96875 545.25 C 679.984375 572.621094 685.6875 612.234375 708.828125 622.207031 C 710.652344 622.992188 712.574219 623.613281 714.621094 624.007812 C 714.773438 624.039062 714.921875 624.066406 715.070312 624.09375 C 715.351562 624.144531 715.625 624.171875 715.90625 624.214844 C 742.253906 628.648438 778.894531 624.726562 808.820312 606.441406 C 802.640625 603.046875 795.335938 598.640625 787.203125 593.4375 C 783.136719 590.832031 778.859375 588.03125 774.414062 585.050781 Z M 774.414062 585.050781 " fill-opacity="1" fill-rule="nonzero"/><path fill="#dcf6fa" d="M 565.019531 228.765625 C 558.972656 228.019531 553.023438 227.316406 547.191406 226.660156 C 548.066406 221.632812 549.625 216.78125 551.410156 213.050781 C 560.066406 194.980469 575.476562 201.667969 578.019531 202.882812 C 581.828125 204.707031 583.597656 208.394531 584.0625 212.824219 C 577.867188 218.0625 571.519531 223.390625 565.019531 228.765625 Z M 327.207031 301.046875 C 336.40625 305.609375 347.714844 310.121094 360.628906 313.664062 C 375.386719 317.714844 392.238281 320.496094 410.425781 320.640625 C 414.972656 320.679688 419.605469 320.550781 424.308594 320.234375 C 429.007812 319.917969 433.785156 319.417969 438.617188 318.707031 C 450.703125 316.933594 463.160156 313.863281 475.808594 309.15625 C 476.863281 308.035156 477.871094 306.859375 478.835938 305.648438 C 478.984375 305.464844 479.125 305.28125 479.269531 305.097656 C 479.773438 304.449219 480.261719 303.792969 480.738281 303.128906 C 480.925781 302.863281 481.113281 302.597656 481.296875 302.328125 C 481.707031 301.734375 482.105469 301.132812 482.492188 300.53125 C 483.011719 299.714844 483.503906 298.894531 483.972656 298.070312 C 484.507812 297.128906 485.003906 296.183594 485.464844 295.246094 C 486.167969 293.804688 486.773438 292.378906 487.273438 290.988281 C 487.382812 290.6875 487.484375 290.386719 487.582031 290.089844 C 487.78125 289.472656 487.960938 288.867188 488.117188 288.269531 C 488.378906 287.265625 488.574219 286.292969 488.695312 285.355469 C 488.789062 284.625 488.839844 283.914062 488.839844 283.234375 C 488.839844 283.222656 488.839844 283.210938 488.839844 283.199219 C 488.828125 278.835938 486.800781 275.714844 481.957031 275.167969 C 471.117188 273.945312 408.234375 261.457031 377.582031 243 C 352.011719 255.050781 326.53125 270.699219 304.695312 286.585938 C 308.9375 290.554688 316.691406 295.832031 327.207031 301.046875 Z M 572.46875 353.535156 C 589.824219 356.671875 598.0625 349.890625 601.820312 329.128906 C 604.550781 314.042969 601.664062 296.679688 584.4375 293.566406 C 580.191406 292.796875 575.078125 292.898438 568.960938 294.109375 C 561.039062 295.675781 555.144531 305.34375 553.132812 316.46875 C 550.320312 332.007812 555.082031 350.390625 572.46875 353.535156 Z M 637.597656 357.976562 C 656.113281 361.320312 665.363281 355.324219 668.792969 336.371094 C 671.417969 321.847656 667.695312 304.828125 653.003906 302.171875 C 648.90625 301.433594 643.953125 301.808594 638.050781 303.671875 C 629.660156 306.316406 623.339844 316.613281 621.359375 327.578125 C 618.9375 340.960938 622.976562 355.332031 637.597656 357.976562 Z M 705.484375 359.695312 C 719.320312 362.195312 729.027344 351.710938 731.507812 337.996094 C 733.484375 327.078125 730.421875 315.558594 721.921875 312.394531 C 720.425781 311.835938 718.707031 311.367188 716.878906 311.039062 C 703.332031 308.589844 694.398438 313.921875 691.382812 330.585938 C 689.128906 343.046875 692.578125 357.363281 705.484375 359.695312 Z M 765.832031 365.835938 C 779.648438 368.332031 788.160156 356.304688 790.425781 343.777344 C 792.453125 332.585938 788.828125 320.9375 775.46875 318.523438 C 775.027344 318.445312 774.574219 318.375 774.113281 318.316406 C 773.503906 318.238281 772.847656 318.128906 772.164062 318.003906 C 771.484375 317.882812 770.773438 317.746094 770.050781 317.613281 C 757.386719 315.324219 750.15625 324.101562 747.910156 336.515625 C 745.671875 348.898438 750.269531 363.023438 765.832031 365.835938 Z M 821.308594 366.328125 C 833.410156 368.511719 841.515625 358.261719 843.496094 347.296875 C 845.160156 338.101562 842.523438 328.402344 834.339844 325.105469 C 832.644531 324.421875 831.039062 323.957031 829.527344 323.683594 C 817.882812 321.578125 811.46875 330.851562 809.601562 341.179688 C 807.542969 352.554688 809.777344 364.242188 821.308594 366.328125 Z M 601.230469 451.609375 C 600.144531 451.777344 599.027344 452.003906 597.894531 452.300781 C 597.140625 452.496094 596.378906 452.726562 595.613281 452.992188 C 594.46875 453.386719 593.316406 453.863281 592.175781 454.433594 C 591.414062 454.8125 590.65625 455.230469 589.910156 455.699219 C 589.160156 456.164062 588.421875 456.675781 587.695312 457.234375 C 587.332031 457.515625 586.972656 457.808594 586.617188 458.113281 C 585.550781 459.03125 584.519531 460.0625 583.535156 461.222656 C 581.246094 463.929688 579.222656 467.335938 577.667969 471.617188 C 576.777344 474.0625 576.039062 476.792969 575.488281 479.839844 C 575.375 480.476562 575.265625 481.132812 575.164062 481.800781 C 574.863281 483.808594 574.628906 485.9375 574.476562 488.152344 C 574.320312 490.367188 574.246094 492.664062 574.253906 495.007812 C 574.257812 495.789062 574.273438 496.578125 574.292969 497.367188 C 574.339844 498.945312 574.425781 500.539062 574.550781 502.136719 C 574.675781 503.734375 574.84375 505.332031 575.058594 506.921875 C 575.375 509.308594 575.796875 511.675781 576.320312 513.984375 C 577.375 518.601562 578.855469 522.980469 580.835938 526.8125 C 581.496094 528.09375 582.210938 529.308594 582.980469 530.453125 C 584.140625 532.171875 585.429688 533.726562 586.855469 535.078125 C 588.277344 536.429688 589.84375 537.582031 591.550781 538.492188 C 592.121094 538.796875 592.707031 539.070312 593.308594 539.320312 C 594.511719 539.816406 595.78125 540.203125 597.121094 540.460938 C 597.226562 540.480469 597.332031 540.5 597.4375 540.519531 C 598 540.621094 598.554688 540.703125 599.101562 540.761719 C 599.648438 540.820312 600.1875 540.859375 600.722656 540.878906 C 601.789062 540.917969 602.828125 540.875 603.835938 540.757812 C 604.847656 540.640625 605.832031 540.449219 606.785156 540.1875 C 608.691406 539.660156 610.488281 538.851562 612.175781 537.800781 C 613.4375 537.007812 614.636719 536.082031 615.777344 535.035156 C 620.328125 530.839844 623.878906 524.703125 626.441406 517.644531 C 626.65625 517.054688 626.859375 516.460938 627.058594 515.859375 C 627.460938 514.660156 627.832031 513.4375 628.175781 512.195312 C 628.519531 510.953125 628.835938 509.691406 629.125 508.414062 C 629.414062 507.140625 629.679688 505.851562 629.914062 504.554688 C 630.722656 500.082031 631.273438 494.886719 631.390625 489.527344 C 631.503906 484.167969 631.179688 478.644531 630.230469 473.527344 C 621.453125 465.695312 613.390625 458.175781 606.34375 451.179688 C 605.398438 451.195312 604.398438 451.246094 603.359375 451.34375 C 602.667969 451.410156 601.957031 451.496094 601.230469 451.609375 Z M 695.0625 544.605469 C 693.792969 551.644531 693.417969 560.515625 694.347656 569.300781 C 694.433594 570.097656 694.527344 570.894531 694.632812 571.691406 C 694.953125 574.078125 695.371094 576.445312 695.898438 578.75 C 696.949219 583.367188 698.433594 587.746094 700.410156 591.582031 C 701.070312 592.859375 701.785156 594.074219 702.558594 595.222656 C 706.03125 600.371094 710.671875 604.058594 716.695312 605.226562 C 716.804688 605.25 716.910156 605.269531 717.015625 605.289062 C 718.136719 605.492188 719.230469 605.609375 720.296875 605.648438 C 720.832031 605.667969 721.355469 605.664062 721.875 605.644531 C 723.953125 605.5625 725.917969 605.171875 727.769531 604.507812 C 733.328125 602.511719 737.878906 598.0625 741.429688 592.179688 C 742.023438 591.199219 742.589844 590.179688 743.125 589.125 C 744.199219 587.015625 745.164062 584.765625 746.015625 582.410156 C 746.230469 581.824219 746.4375 581.230469 746.636719 580.628906 C 747.832031 577.027344 748.785156 573.214844 749.488281 569.324219 C 749.570312 568.867188 749.648438 568.402344 749.722656 567.933594 C 733.792969 556.617188 716.746094 543.972656 699.777344 530.855469 C 698.238281 533.597656 696.925781 536.816406 695.9375 540.613281 C 695.609375 541.878906 695.316406 543.207031 695.0625 544.605469 Z M 695.0625 544.605469 " fill-opacity="1" fill-rule="nonzero"/></svg>