<?xml version="1.0" encoding="UTF-8"?>
<svg id="Layer_2" data-name="Layer 2" xmlns="http://www.w3.org/2000/svg" xmlns:xlink="http://www.w3.org/1999/xlink" viewBox="0 0 657 431.54">
  <defs>
    <style>
      .cls-1 {
        fill: none;
      }

      .cls-2 {
        fill: #fa7d34;
      }

      .cls-3 {
        fill: #451814;
      }

      .cls-4 {
        fill: #fa7c35;
      }

      .cls-5 {
        fill: #fea75b;
      }

      .cls-6 {
        fill: #feb165;
      }

      .cls-7 {
        fill: #ed4d26;
      }

      .cls-8 {
        fill: #fff0d3;
      }

      .cls-9 {
        fill: #fea457;
      }

      .cls-10 {
        fill: #f25029;
      }

      .cls-11 {
        fill: #fb7c35;
      }

      .cls-12 {
        fill: #d0a39b;
      }

      .cls-13 {
        fill: #fea559;
      }

      .cls-14 {
        fill: #fdaa5c;
      }

      .cls-15 {
        fill: #fea555;
      }

      .cls-16 {
        fill: #fea556;
      }

      .cls-17 {
        fill: #400d05;
      }

      .cls-18 {
        clip-path: url(#clippath-1);
      }

      .cls-19 {
        fill: #fea256;
      }

      .cls-20 {
        fill: #471915;
      }

      .cls-21 {
        fill: #fbd3a7;
      }

      .cls-22 {
        fill: #4e1c19;
      }

      .cls-23 {
        fill: #facfa3;
      }

      .cls-24 {
        fill: #451815;
      }

      .cls-25 {
        fill: #ed4d24;
      }

      .cls-26 {
        fill: #2d0c06;
      }

      .cls-27 {
        fill: #fdd2a6;
      }

      .cls-28 {
        fill: #eb4d24;
      }

      .cls-29 {
        fill: #fbd4a9;
      }

      .cls-30 {
        fill: #45130a;
      }

      .cls-31 {
        fill: #ef4b24;
      }

      .cls-32 {
        fill: #fea85b;
      }

      .cls-33 {
        fill: #511e1a;
      }

      .cls-34 {
        fill: #f04d26;
      }

      .cls-35 {
        fill: #ee5128;
      }

      .cls-36 {
        fill: #fea65b;
      }

      .cls-37 {
        fill: #fea453;
      }

      .cls-38 {
        fill: #fea657;
      }

      .cls-39 {
        fill: #ffeed2;
      }

      .cls-40 {
        fill: #ffedd0;
      }

      .cls-41 {
        fill: #fea656;
      }

      .cls-42 {
        fill: #441512;
      }

      .cls-43 {
        fill: #481816;
      }

      .cls-44 {
        fill: #fea150;
      }

      .cls-45 {
        clip-path: url(#clippath);
      }

      .cls-46 {
        fill: #fe9f50;
      }

      .cls-47 {
        fill: #ffefd2;
      }
    </style>
    <clipPath id="clippath">
      <rect class="cls-1" y="2.42" width="197.85" height="116"/>
    </clipPath>
    <clipPath id="clippath-1">
      <rect class="cls-1" x="619.18" y="209.09" width="37.82" height="33.33"/>
    </clipPath>
  </defs>
  <g id="Layer_1-2" data-name="Layer 1">
    <g>
      <path class="cls-4" d="M269.66,225.07c.62.29,1.14.74,1.95.58,14.68-2.87,29.01-.4,43.22,3.02,10.85,2.61,21.54,5.83,32.15,9.31.2,1.72-1.26,1.56-2.21,1.85-2.81.84-2.14,2.24-.44,3.41,3.72,2.56,7.8,2.77,11.99,1.22,5.02,3.58,8.62,8.16,10.18,14.21-1.93,1.24-4.11.63-6.18.85-1.03.11-2.64-.43-2.79,1.1-.13,1.28,1.43,1.51,2.43,1.98,3.4,1.64,6.76,1.7,10.08-.22,1.44.13,2.16,1.28,3.01,2.2,21.79,23.47,48.94,37.74,79.41,46.35,9.99,2.82,20.16,4.68,30.43,6,1.88.24,3.67.53,4.74,2.35.03,3.68-2.96,5.56-4.97,7.91-4.66,5.43-4.7,5.29-1.19,11.62,3.28,5.93,7.14,11.47,11.1,16.93,2.2,3.86,5.38,6.86,8.54,9.89-.43.3-1.91-.18-1.21.9.98,1.51,2.47,2.68,3.75,3.99,2.25,2.32,4.51,4.64,6.77,6.96-1.78,2.01-4.19,1.27-6.36,1.36-6.67.29-8.68,2.01-9.85,8.59-.53,2.94-.31,5.91-.4,8.86-.05,1.68.03,3.41-1.13,4.83-1.83,1.54-3.19.02-4.53-.83-19.08-12.16-37.39-25.44-55.41-39.1-2.92-2.21-6.04-4.16-8.93-6.84.21,2.07,1.27,3.96-.17,5.72-3.05,2.44-6.82,2.66-10.4,3.38-21.6,4.32-42.92,1.95-64.04-3.15-17.7-4.27-35.44-7.99-53.82-6.98-1.28.07-2.56-.02-3.78-.43-1.83-.79-1.86-2.39-1.5-3.94,1.29-5.57,2.46-11.15,2.36-16.11-4.23,8.33-9.72,16.69-17.74,23.14-3.05,3.01-6.47,5.57-9.59,8.49-6.41,4.24-13.3,7.47-20.53,10.03-5.66,2-11.51,2.88-17.44,3.45-10.53.53-20.92-.15-30.95-3.72-2.09-.74-4.44-1.16-5.61-3.43-5.2-2.96-10.41-5.89-15.58-8.89-1.8-1.04-3.67-2-5.19-3.47-2.13-3.57-1.25-7.4-.84-11.14.28-2.52,1.04-4.99,2.03-7.33,2.8-6.55,5.06-13.17,4.44-20.46-.1-1.11.14-2.26.95-3.16,1.41-.04,2.83-.15,4.23-.1,7.63.26,13.3-3.29,17.56-9.27,3.9-5.46,6.19-11.73,8.43-17.98,4.7-13.11,10.59-25.58,19.43-36.49,1.14-1.41,2.68-2.52,3.36-4.29,9.98-13.68,23.85-20.6,40.23-23.17Z"/>
      <path class="cls-11" d="M428.79,49.03c6.79,4.44,12.44,10.21,18.39,15.63,5.34,4.86,10.27,10.16,14.61,15.94,1.14,1.51,2.33,1.86,3.99,1.42,9.6-2.51,19.4-3.84,29.28-4.6,1.55-.12,3.1-.26,4.66-.3,4.47-.09,4.15.26,4.17-4.13.02-4.37-.4-8.76.46-13.1,2.5,2.97,1.18,6.52,1.31,9.79.23,5.75.08,5.8,5.8,6.22,15.32,1.15,30.47,3.19,44.76,9.28,7.58,3.23,14.88,7,21.58,11.85,2.44,1.76,4.58,3.73,6.15,6.31,17.12,14.45,26.77,33.41,33.04,54.45,3.99,13.38,5.73,27.17,7.58,40.94.48,3.55,1.8,5.65,5.24,6.73,4.7,1.47,9.26,3.42,14.19,4.1-.82,1.58-2.38,1.38-3.72,1.38-3.48,0-6.65,1.17-9.81,2.43-4.06,1.61-7.63,3.72-9.07,8.23-.26.81-.87,1.45-1.71,1.8-9.95,1.54-20.02,1.84-30.04,2.15-13.31.41-26.65.36-39.95.04-16.88-.42-33.55-3.06-50.24-5.42-18.66-2.63-37.34-4.91-56.24-4.76-15.61.14-31.11,1.42-46.51,3.96-2.37.39-4.72.95-7.15.99-.74,0-1.46-.13-2.14-.41-3.83-4.04-3.12-9.16-2.79-13.93.79-11.76,5.07-22.59,10.02-33.12,1.47-3.14.97-4.86-1.7-6.7-3.28-2.27-5.8-5.37-8.36-8.39.28-1.66-.95-2.54-1.8-3.64-13.24-17.1-21.76-36.36-26.11-57.5-.11-.54,0-1.12,0-1.68,5.13-.6,9.44,2.08,14.08,3.45,2.75,2.6,2.93,6.38,4.14,9.62,6.46,17.35,16.66,32.1,30.11,44.73,1.98,1.86,3.07,2.19,4.92-.29,10.99-14.75,24.14-27.39,38.67-38.61,5.1-3.94,5.22-4.15,2.23-10.08-6.73-13.37-16.35-24.44-27.48-34.28-1.47-1.31-3.29-2.29-3.64-4.5,2.42-5.67,4.61-11.49,9.09-16.01Z"/>
      <path class="cls-2" d="M189.38,35.01c8.52,6.39,16.47,13.38,23.61,21.31,13.51,15.03,22.41,32.55,28.44,51.68,4.35,13.8,6.92,28,9.29,42.24,2.51,15.07,4.09,30.29,7.64,45.18.06.27-.02.56-.03.84-.07,3.15-2.27,4.31-4.83,5.07-12.7,3.74-25.68,4.6-38.77,3.22-33.74-3.54-60.75-20.07-83.53-44.23-10.54-11.18-18.91-24.09-27.11-37.05-.68-1.07-1.35-2.18-1.44-3.52.21,3.29.41,6.59-.11,9.85-.21,1.33-.71,3.21-2.49.92-1.04-4.6-.53-9.27-.48-13.89.08-7.74-.09-15.48.23-23.21.8-3.31,3.07-2.85,5.31-1.89,6.42,2.75,12.25,6.55,17.84,10.68,5.36,3.97,10.84,7.74,16.6,11.1,2.7,1.58,5.49,2.99,8.67,3.33,4.47.47,6.59-.95,7.8-5.33,1.8-6.5.43-12.98-.5-19.4-1.32-9.13-3.69-18.05-6.31-26.89-.68-2.28-1.91-4.98.36-6.73,2.05-1.58,4.36.15,6.3,1.19,7.66,4.1,14.61,9.23,21.12,14.96,3.51,3.09,7.04,6.19,11.19,8.43,4.47,2.41,6.76,1.28,8.05-3.66,1.39-5.28.14-10.44-.72-15.59-1.36-8.13-3.9-15.96-6.39-23.8-.48-1.52-2.06-3.36.28-4.82Z"/>
      <path class="cls-47" d="M388.74,219.37c9.47-1.72,18.98-3.2,28.57-3.99,14.27-1.17,28.56-1.72,42.89-.69,7.2.52,14.41.96,21.57,1.94,9.67,1.33,19.36,2.45,29.03,3.83,9.53,1.36,19.07,2.46,28.67,3.21,16.71,1.32,33.44,1.06,50.15.59,10.19-.28,20.36-1.23,30.54-1.88.89.34,1.16,1.16,1.48,1.93,3.75,8.96,10.38,14.38,19.94,16.18.7.13,1.34.39,1.72,1.06-.66.94-3.03.67-1.92,2.9.42.85-.48,1.53-1.07,2.11-3.99,3.94-7.99,7.86-11.99,11.79-4.58.57-9,2.05-13.69,2.06-11.8.04-15.09-.94-25.99-8.48.99,2.67,2.65,4.17,4.59,5.46,5.11,3.39,10.77,4.84,16.84,5.05,2.04.07,4.3-.64,5.99,1.23-.11,1.56.1,2.91-1.8,4.05-3.58,2.16-7.14,4.31-10.98,5.98-4.08.57-7.81,2.34-11.73,3.48-28.9,8.39-58.48,11.59-88.34,9.4-33.54-2.46-64.82-12.43-91.61-33.7-9.73-7.72-18.06-16.81-23.18-28.38-.74-1.66-2.34-3.59.32-5.14Z"/>
      <g class="cls-45">
        <path class="cls-8" d="M189.38,35.01c-1.29,1.32.11,2.38.46,3.43,3.32,10.11,6.4,20.28,7.62,30.91.44,3.83.58,7.65-.42,11.41-1.21,4.51-3.7,5.7-7.96,3.9-3.18-1.33-5.81-3.53-8.45-5.68-6.39-5.17-12.36-10.88-19.48-15.1-2.56-1.52-5.17-2.95-7.82-4.29-1.11-.56-2.38-.8-3.61-1.2-1.07,2.2-.09,4.05.44,5.91,3.2,11.18,6.24,22.4,7.34,34.03.43,4.53.67,9.07-.41,13.54-1.27,5.25-4.01,7.01-9.35,5.99-3.4-.65-6.38-2.33-9.35-3.97-5.73-3.14-10.97-7.04-16.26-10.88-5.4-3.91-10.91-7.67-17.04-10.37-1.3-.57-2.76-1.82-4.3-.31-.99,6.15.11,12.39-.59,18.84-2.39-.07-3.04-1.9-3.89-3.4-6.45-11.33-12.3-23.02-19.74-33.77C60.17,50.36,39.04,33.23,10.7,26c-2.31-.59-4.43-1.86-6.89-1.86C2.64,23.41,1.02,23.62,0,22.31c1.03-1.45,2.48-2.26,4-2.91,13.68-5.82,27.78-10.4,42.43-12.89,8.31-1.41,16.69-2.46,25.16-2.96,6.07-.37,12.14-.76,18.2-.61,11.14.28,22.2,1.41,33.13,3.71,11.21,2.37,22.2,5.35,32.78,9.83,11.86,5.03,23.4,10.63,33.68,18.53Z"/>
      </g>
      <path class="cls-10" d="M101.01,131.51c1.33-2.24.51-4.71.67-7.07.15-2.12.03-4.25.03-6.33.52-.31.82-.11,1.03.27,6.69,12.36,14.86,23.74,23.62,34.66,10.34,12.9,22.73,23.69,36.74,32.43,13.42,8.37,27.92,14.11,43.63,16.87,9.01,1.58,18.02,1.88,27.05,1.45,6.59-.32,13.14-1.64,19.54-3.44,2.21-.62,4.1-1.79,5.02-4.08,2.79,9.08,5.47,18.21,10.19,26.55.42.73.76,1.5,1.14,2.25-1.24,1.34-2.98,1.44-4.61,1.84-13.1,3.22-24.68,8.98-33.18,19.87-.66.85-1.38,1.38-2.44,1.46-12.95-1.42-25.92-2.64-38.84-4.31-25.69-3.32-50.18-10.42-72.19-24.53-27.69-17.73-46.39-42.09-53.81-74.51-.89-3.86-1.48-7.8-2.21-11.7-.68-1.36.1-2.92-.56-4.29.01-.24,0-.48-.04-.72,2.33-1.12,2.89,1.05,3.77,2.22,4.86,6.42,9.52,12.99,15.45,18.53,1.66,1.55,3.35,3.04,5.3,4.2,4.75,2.86,7.87,1.84,9.96-3.41,1.36-3.42,2.25-6.96,2.74-10.64.35-2.57.1-5.39,2.01-7.58Z"/>
      <path class="cls-21" d="M388.74,219.37c-.79,1.02-.65,1.97-.13,3.14,2.8,6.24,6.32,12.07,10.83,17.18,9.76,11.04,21.46,19.64,34.51,26.46,12.6,6.6,25.9,11.33,39.69,14.68,6.15,1.49,12.46,2.24,18.69,3.32,15.23,2.64,30.53,1.39,45.78,1.38,7.27,0,14.58-1.36,21.79-2.6,9.16-1.56,18.3-3.28,27.28-5.77,4.49-1.24,8.98-2.47,13.46-3.76.98-.29,1.88-.75,2.65.32-15.73,8.75-32.64,14.21-50.16,17.95-6.76,1.44-13.54,2.82-20.45,3.42-1.08.09-2.03.51-2.32,1.56-2.17,7.81-5.83,15.02-8.91,22.45-.3,1.29-.89,2.13-2.41,1.56-5.44-1.19-10.95-.36-16.43-.5-4.38-.11-8.72-.31-12.95-1.54-1.62-1.73-.14-3.13.59-4.53,2.03-3.9,4.46-7.58,6.35-11.56,1.72-3.63,1.67-3.85-2.26-3.77-16.24.36-32.3-1.58-48.22-4.41-17.95-3.19-35.42-8.08-51.58-16.85-2.13-1.15-4.26-2.3-6.12-3.84-2.51-2.08-2.38-3.27.53-4.61,2.8-1.29,5.81-2.12,9.22-3.99-6.12-2.74-11.69-5.07-16.88-8.18-6.23-3.73-12.13-7.9-17.72-12.51-.98-.81-1.99-1.63-2.15-3.04-3.8-3.97-7.6-7.95-11.83-12.36,7.13-1.96,13.8-3.81,20.7-5.71-1.3-1.02-2.88-.14-3.79-1.31.28-.32.52-.77.95-.8,6.56-.4,13.01-1.92,19.6-1.86.56.03,1.12.05,1.67.08Z"/>
      <path class="cls-29" d="M265.39,363.91c-.27-1.2.61-1.72,1.36-2.35,2.34-1.97,4.67-3.96,6.99-5.95,2.88-1.96,5.95-3.15,9.51-2.46,15.57,5.3,30.58,12.2,46.8,15.58,29.55,6.18,58.9,4.93,88.16-1.81,2.63-.6,5.2-1.46,7.88-1.79,1.58-.11,2.71.69,3.53,1.91,3.6,5.39,7.42,10.58,12.11,15.1.6.57,1.01,1.36.68,2.3-7.8,3.82-16.2,5.81-24.6,7.62-9.63,2.07-19.42,3.64-29.24,4.13-9,.45-18.05.58-27.11-.42-8.27-.91-16.49-1.89-24.65-3.54-12.64-2.57-24.74-6.8-36.67-11.58-1.43-.57-2.76-1.47-4.4-1.4-9.71-4.17-18.99-9.23-28.62-13.59-.76-.34-1.45-.88-1.74-1.74Z"/>
      <path class="cls-27" d="M101.01,131.51c-.67,6.05-1.22,12.11-3.39,17.88-.6,1.6-1.21,3.18-2.4,4.45-2.18,2.36-4.32,2.84-7.23,1.45-5.91-2.84-10.14-7.68-14.22-12.57-3.44-4.13-6.55-8.54-9.78-12.84-.59-.79-.96-1.78-2.2-1.69-.72-9.7-1.38-19.41-2.8-29.03-2.71-18.37-9.16-35.33-21.22-49.61C28.48,38.54,17.42,29.53,3.81,24.14c3.26-.76,6.27.64,9.24,1.41,13.29,3.47,25.42,9.54,36.35,17.77,8.49,6.4,15.79,14.11,22.4,22.46,8.92,11.24,15.77,23.74,22.46,36.35,1.5,2.84,3.2,5.57,4.84,8.4,1.4-.77.84-1.88.85-2.74.05-3.96-.04-7.93-.02-11.9,0-1.23-.36-2.59.83-3.57.08,13.06.16,26.12.23,39.18Z"/>
      <path class="cls-33" d="M176.43,316.38c.07,2.4.09,4.8.21,7.19.19,3.6-.55,7.01-1.89,10.32-.69,1.7-1.36,3.41-2.08,5.09-2.65,6.25-3.41,12.77-2.83,19.48-3.88-3.26-6.82-1.95-10.44,1.08-8.06,6.73-16.89,12.44-26.33,17.13-6.52,3.23-13.32,5.58-20.53,6.66-4.46.67-8.81.11-12.94-1.59-9.98-4.14-11.67-15.28-3.37-22.24,1.61-1.35,3.43-2.56,5.32-3.48,18.08-8.74,33.38-21.38,48.52-34.27,2.38-2.03,4.76-4.02,7.35-5.79,3.24-2.21,6.77-2.92,10.54-2.19,2.9.56,5.79,1.28,8.48,2.6Z"/>
      <path class="cls-34" d="M583.94,103.34c-2.42-.98-3.89-3.19-5.93-4.68-11.31-8.28-23.79-13.96-37.34-17.34-7.91-1.97-15.92-3.38-24.13-3.57-3.06-.07-6.11-.96-9.23-.74-1.99.14-2.8-.73-2.76-2.72.07-3.68.03-7.35,0-11.03-.01-1.13-.13-2.26-.2-3.38.17-4.58-.02-9.18,1.11-13.68,1.12-2.01,3.05-2.92,5.09-3.53,15.94-4.74,31.94-5.05,47.98-.52,1.8.51,3.37,1.41,4.8,2.6,4.22,6.43,7.11,13.52,9.96,20.59,4.94,12.26,8.64,24.9,10.65,37.99Z"/>
      <path class="cls-22" d="M491.76,401.53c1.29-2.04,1.02-4.34,1.08-6.57.1-3.23-.14-6.47.49-9.69.91-4.7,3.44-7.21,8.22-7.59,2.94-.24,5.91-.13,8.87-.18,8.26,7.13,16.55,14.24,26.04,19.74,3.8,2.2,7.67,4.28,11.49,6.43,2.23,1.25,4.41,2.58,6.25,4.38,4.93,4.83,5.35,11.51,1.01,16.88-3.31,4.1-7.77,6.04-12.92,6.48-3.69.31-7.37.09-10.97-.86-17.78-4.7-34.38-12.16-50.19-21.44,2.97-3.33,7.68-4.22,10.63-7.58Z"/>
      <path class="cls-35" d="M361.44,241.31c7.42,5.94,14.95,11.7,23.36,16.24,4.99,2.69,10.18,4.93,16.21,7.27-4.63,2.86-9.28,4.19-14.14,6.13,2.07,2.28,4.44,3.52,6.73,4.8,8.06,4.52,16.57,7.99,25.37,10.78,15.3,4.83,30.98,7.67,46.9,9.5,10.59,1.22,21.18,1.74,31.81,1.61.56,0,1.12.07,2.18.14-2.61,7.45-7.05,13.64-10.73,20.21-.17,1.06-.72,1.7-1.85,1.72-2.55-2.74-6.18-1.9-9.21-2.32-9.24-1.28-18.29-3.27-27.24-5.79-12.55-3.54-24.72-8.13-36.22-14.29-10.22-5.48-20.01-11.63-28.9-19.2-5.63-4.79-10.81-9.94-15.68-15.46-1.95-.74-3.53-1.79-3.52-4.18-3.23-4.68-6.17-9.57-10.14-13.7-2.16-1.09-3.8-2.6-4.26-5.11,3.22-.08,6.11,1.71,9.32,1.65Z"/>
      <path class="cls-43" d="M370.66,99.22c-4.67-1.41-9.33-2.81-13.99-4.22-1.72-4.87-1.92-10-2.5-15.05-1.67-14.58-1.76-29.14,1.27-43.58.84-4.03,1.93-7.98,4.01-11.59,2.25-3.93,5.61-5.79,10.13-5.81,3.18-.02,6.19.76,9.12,1.81,18.3,6.58,34.71,16.51,50.1,28.26-2.82,5.35-5.65,10.7-8.47,16.06-2.35.79-3.65-1.02-5.18-2.15-9.91-7.36-20.05-14.33-31.66-18.85-10.41-4.05-13.07-2.35-14.76,8.98-2.04,13.67-.15,27.08,2.06,40.51.3,1.84,1.47,3.8-.13,5.64Z"/>
      <path class="cls-24" d="M553.06,337.38c3.02,1.18,6.06,2.33,9.07,3.55,12.26,4.98,25.06,7.92,38.05,10.18,2.24.39,4.42,1.01,6.48,1.95,6.24,2.89,8.82,9.04,6.56,15.57-1.68,4.86-5.11,8.06-9.76,10.03-3.41,1.45-7,2.24-10.69,2.51-7.8.57-15.57.01-23.32-.89-9.84-1.14-19.68-2.25-29.33-4.58.25-2.17,2.19-2.8,3.6-3.88,4.51-3.44,5.53-6.38,3.74-11.81-1.19-3.62-2.74-7.13-3.45-10.9-1.1-5.91,3.14-11.38,9.04-11.75Z"/>
      <path class="cls-34" d="M553.06,337.38c-1.74.65-3.3,1.6-4.74,2.76-2.92,2.34-4.01,5.3-3.23,9.01.64,3.06,1.74,5.96,2.85,8.86,2.99,7.83,1.92,11.11-5.07,15.71-.94.62-1.83,1.32-2.74,1.98-13.24-2.42-26.4-5.19-39.01-10.07-4.63-1.59-6.83-5.61-9.33-9.33.41-1.24,1.21-2.22,2.16-3.09,9.45-8.63,16.92-18.83,23.63-29.65.65-1.06,1.15-2.29,2.39-2.88.5-.54,1.01-1.07,1.51-1.61,9.91,7.19,20.5,13.18,31.61,18.29Z"/>
      <path class="cls-20" d="M190.61,370.82c11.77,5.11,24.11,6.69,36.83,6.13,1.75,3.18.07,5.79-1.43,8.42-2.11-.86-3.49-.18-4.93,1.65-6.95,8.83-14.9,16.7-23.81,23.55-6.67,5.13-13.74,9.51-22.2,11.08-3.99.74-7.91.46-11.63-1.29-6.14-2.89-8.4-9.17-5.51-15.3,1.49-3.17,3.92-5.52,6.67-7.57,9.49-7.08,17.67-15.47,24.79-24.92.43-.56.81-1.16,1.21-1.74Z"/>
      <path class="cls-42" d="M563.33,44.77c-5.56-1.56-11.07-3.33-16.85-3.91-14.09-1.42-27.91-.74-41.01,5.35.73-13.4,3.07-26.46,8.28-38.9.49-1.17,1.14-2.3,1.87-3.33,2.72-3.81,6.46-4.91,10.84-3.21,2.8,1.09,5.29,2.75,7.55,4.72,12.58,10.98,21.92,24.4,29.32,39.27Z"/>
      <path class="cls-31" d="M387.08,219.28c-5.06,1.58-10.16,2.86-15.54,2.58-1.66-.09-3.34.05-5.02.08-6.15-.82-12.24-1.83-17.87-4.01-.42-1.04.18-1.33.59-1.66,13.56-11.03,22.7-25.2,29.21-41.22,2.3-5.65,4.34-11.4,6.12-17.23.41-.08,1.06-.35,1.19-.2,2.96,3.6,6.3,6.79,10.06,9.52,1.88,1.36,1.55,2.54.61,4.53-4.36,9.29-8.4,18.74-10.13,28.96-1.06,6.25-1.21,12.51.77,18.66Z"/>
      <path class="cls-7" d="M226.01,385.36c-.16-2.91,1.39-5.54,1.43-8.42,12.89-1.44,24.99-5.08,35.58-12.85.88-.65,1.58-.22,2.38-.18,9.88,4.19,19.37,9.2,29.06,13.79.7.33,1.11.82,1.3,1.55-20.16,17.12-46.75,17.17-69.74,6.1Z"/>
      <path class="cls-25" d="M491.76,401.53c-.33,2.46-2.39,3.42-4.16,4.47-2.05,1.22-4.3,2.09-6.46,3.11-12.56-6.14-24.29-13.61-35.35-22.14-1.11-.85-2.24-1.69-3.37-2.53-5.77-5.66-10.63-12.07-15.1-18.78-2.55-1.41-2.71-4.17-3.66-6.47.16-2.19-1.09-4.04-1.6-6.97,6.42,4.1,11.73,8.7,17.41,12.79,5.72,4.11,11.31,8.38,17.05,12.47,5.85,4.17,11.93,8.02,17.66,12.35,5.64,4.26,11.89,7.56,17.58,11.71Z"/>
      <g class="cls-18">
        <path class="cls-3" d="M643.3,241.55c-10.72-.22-21.05-8.78-23.15-19.17.74-4.27,3.29-7.06,7.14-8.85,5.31-2.46,10.73-4.38,16.71-3.96,2.68.15,5.35.41,7.88,1.38,3.67,1.41,5.56,3.96,5.03,7.86-1.3,9.45-5.19,17.49-13.61,22.74Z"/>
      </g>
      <path class="cls-26" d="M616.06,263.67c-4.51-.18-9.06.17-13.51-.99-4.43-1.16-8.61-2.8-12.03-5.97-2.2-2.04-3.88-4.39-3.85-7.48.63-.36,1.01-.51,1.35-.12,8.71,9.92,19.92,11.55,32.17,9.67,2.09-.33,4.16-.86,6.24-1.25.78-.15,1.73-.52,1.9.83-3.59,2.91-7.59,4.88-12.26,5.31Z"/>
      <path class="cls-14" d="M352.12,239.67c1.84,1.35,3.12,3.17,4.26,5.11-.34.64-.77,1.32-1.47,1.45-4.35.77-8.46.25-12.02-2.61-.96-.77-2.11-1.64-1.69-3.16.44-1.56,1.77-1.63,3.08-1.65.97-.02,2.02.15,2.7-.84,1.86.09,3.64.45,5.14,1.69Z"/>
      <path class="cls-27" d="M61.82,128.91c.87,1.34.72,2.82.56,4.29-1.04-1.32-.8-2.81-.56-4.29Z"/>
      <path class="cls-39" d="M423.66,359.18c2.22,1.59,2.44,4.32,3.66,6.47-7.24,2.42-14.71,3.92-22.21,5.17-8.9,1.47-17.85,2.53-26.91,2.71-3.06.06-6.14.84-9.27.72-6.63-.23-13.21-.92-19.81-1.53-6.05-.56-12.01-1.43-17.96-2.63-10.42-2.1-20.53-5.22-30.36-9.2-4.59-1.85-9.23-3.57-13.92-5.15-1.34-.45-2.74-.72-3.75-1.84.22-.33.51-.59.87-.76.91-.34,1.86-.56,2.77-.91,1.31-.33,2.61-1.14,3.99-.23,1.56.02,3.13.12,4.68.04,14.86-.78,29.4,1.33,43.81,4.71,11.85,2.78,23.71,5.64,35.82,7.03,9.73,1.11,19.53,1.06,29.28-.18,5.19-.66,10.39-1.37,15.44-2.84,1.36-.4,2.76-.64,3.88-1.58Z"/>
      <path class="cls-40" d="M519.95,320.7c-2.61,6.17-6.74,11.41-10.57,16.8-4.99,7.05-10.97,13.25-17.6,18.81-5.09-6.6-9.42-13.7-13.56-20.93-1.18-2.07-1.05-3.43.53-5.21,2.98-3.36,6.17-6.58,8.52-10.46.62-.57,1.24-1.15,1.85-1.72,8.17,1.16,16.39.89,24.59.89,1.27,0,2.59.07,3.81-.21,1.88-.44,2.21.64,2.43,2.03Z"/>
      <path class="cls-28" d="M290.76,352c-1.42.37-2.84.74-4.26,1.11-.8.51-1.85-.01-2.61.65-.27-.05-.53,0-.76.14-3.25-.1-6.24,1.19-9.38,1.71.83-1.96,2.94-2.53,4.31-3.92,6.02-6.08,10.41-13.24,14.27-20.78.24-.47.22-1.1,1.29-1.45-.37,5.44-.09,10.74-1.57,15.95-.61,2.14-1.45,4.28-1.28,6.58Z"/>
      <path class="cls-44" d="M320.63,242.34c-4.23-.35-8.42-1.99-12.49-3.88-1.47-.68-2.39-2.03-1.89-3.83.5-1.77,1.98-1.76,3.42-1.76,4.82-.01,9.04,1.76,12.94,4.43,1.32.91,2.64,1.98,2.05,3.78-.6,1.84-2.4.91-4.03,1.27Z"/>
      <path class="cls-16" d="M341.34,255.86c-3.56-.08-6.9-1.08-10.17-2.39-1.08-.43-1.89-1.2-2.68-2.01-.71-.73-1.3-1.53-.88-2.63.4-1.05,1.29-1.4,2.34-1.47,5.28-.39,9.99,1.1,14.1,4.39.82.65,2.06,1.35,1.7,2.68-.43,1.58-1.9,1.39-3.15,1.42-.42.02-.84,0-1.27,0Z"/>
      <path class="cls-36" d="M366.51,258.48c1.17,1.39,2.34,2.79,3.52,4.18-1.81,2.57-4.2,3.1-7.07,2.04-1.85-.68-3.74-1.28-5.58-2.01-1.33-.53-2.06-1.56-1.72-3.03.34-1.53,1.69-1.26,2.78-1.26,2.69-.01,5.39.04,8.08.07Z"/>
      <path class="cls-13" d="M292.78,240.55c3.31-.1,5.91,1.68,8.49,3.36,1.37.89,1.14,2.13-.38,2.91-.6.31-1.33.45-2.01.51-3.01.24-5.89-.39-8.63-1.58-1.41-.61-3.06-1.46-2.63-3.33.36-1.56,2.02-1.75,3.46-1.85.56-.04,1.13,0,1.69,0Z"/>
      <path class="cls-38" d="M312.51,250.77c2.96.29,6.2,1.45,8.62,4.35,1.29,1.54,1.05,2.35-.92,2.99-1.82.59-3.57.27-5.38-.33-1.9-.63-3.71-1.39-5.36-2.48-.94-.61-1.81-1.48-1.49-2.8.38-1.59,1.68-1.71,3-1.72h1.54Z"/>
      <path class="cls-19" d="M349.8,271.2c-2.26.42-4.38-.71-6.47-1.86-1.28-.71-1.67-1.86-1.29-3.23.35-1.29,1.38-1.67,2.59-1.7,3.36-.07,6.27,1.3,9.03,3,.85.53,1.43,1.5,1.27,2.52-.19,1.22-1.33,1.24-2.32,1.27-.84.03-1.69.01-2.81.01Z"/>
      <path class="cls-47" d="M370.66,99.22c-1.46-8.62-3.07-17.21-3.61-25.97-.5-8.09-.38-16.13,1.22-24.08,1.72-8.57,4.4-10.05,12.82-7.17,9.85,3.36,18.64,8.7,27.19,14.54,4.06,2.78,7.64,6.25,12.04,8.55.74,1.63,2.29,2.45,3.54,3.57,11.46,10.3,21.69,21.58,28.27,35.73,3.42,7.35,2.74,5.86-2.38,9.82-15.32,11.85-29.23,25.08-40.5,40.92-.32.46-.7.88-1.44,1.79-4.39-4.31-8.84-8.33-12.79-12.91-10.97-12.73-18.92-27.12-23.58-43.29-.16-.53-.51-1-.77-1.5Z"/>
      <path class="cls-30" d="M515.41,197.81c.1-5.11,1.52-9.78,4.71-13.81,5.79-7.3,16.2-6.89,21.24.92,3.08,4.77,4.28,10.13,4.27,15.77,0,.83.05,1.86-1.04,2.04-1.02.16-1.42-.76-1.74-1.54-.89-2.08-1.66-4.22-2.61-6.27-1.08-2.32-2.51-4.44-4.52-6.1-3.65-2.99-7.78-2.79-11,.68-2.58,2.77-3.93,6.19-4.78,9.82-.38,1.65-.67,3.33-1.02,4.99-.12.57-.39,1.1-1.01,1.24-.84.18-1.27-.38-1.58-1.06-.98-2.14-.88-4.41-.93-6.68Z"/>
      <path class="cls-17" d="M608.27,192.05c-.72-.36-1.1-.43-1.17-.61-1.98-5.2-1.95-10.48-.27-15.72.67-2.07,1.93-3.84,4.41-4.04,2.35-.18,4.1,1.03,5.33,2.88,3,4.48,3.81,9.65,4.27,14.89.06.69-.22,1.46-1.09,1.52-.65.05-.91-.53-1.09-1.09-.89-2.68-1.76-5.37-3.19-7.83-.83-1.43-1.67-3.4-3.55-3.1-1.89.3-2.2,2.43-2.48,4.07-.5,2.9-.77,5.84-1.17,9.04Z"/>
      <path class="cls-5" d="M550.56,103.98c-.06,1.96.17,3.32-1.16,4.11-1.43.86-2.36-.26-3.38-.95-4.18-2.85-6.46-6.9-7.3-11.81-.22-1.26-.27-2.66,1.02-3.42,1.3-.78,2.82-.78,3.98.18,3.95,3.27,6.44,7.37,6.84,11.89Z"/>
      <path class="cls-15" d="M565.83,126.68c.04,1.55-.01,2.52-.7,3.35-.91,1.1-1.76,1.66-3.18.54-3.7-2.92-6.53-10.56-5.37-14.96.45-1.75,1.6-2.11,3.1-.93,4.07,3.18,5.6,7.63,6.14,12Z"/>
      <path class="cls-37" d="M548.82,128.24c.07,2.19-1.53,3.19-3.77,2.07-2.15-1.07-4.14-2.49-5.6-4.45-1.45-1.93-2.58-4.1-3.22-6.42-.57-2.08.84-3.48,2.75-3.02,4.33,1.04,9.71,7.5,9.84,11.82Z"/>
      <path class="cls-32" d="M524.38,109.37c-3.95-.91-8.09-2.78-10.55-7.16-1.33-2.38-.48-3.73,2.21-3.91,4.63-.32,10.79,4.11,11.92,8.56.44,1.72-.36,2.43-3.58,2.51Z"/>
      <path class="cls-6" d="M515.6,81.97c.05-2.15.98-2.94,2.93-2.1,3.28,1.41,6.14,3.46,8.14,6.51.72,1.1,1.01,2.33.8,3.65-.12.78-.57,1.24-1.36,1.38-3.44.63-10.6-5.8-10.52-9.44Z"/>
      <path class="cls-46" d="M567.54,105.93c-.19.91.7,2.69-1.17,3.27-1.79.54-2.95-.71-3.72-2.11-1.3-2.34-2.5-4.74-2.7-7.47-.1-1.4-.23-2.96,1.44-3.61,1.48-.58,2.39.56,3.2,1.49,2.02,2.29,3.26,4.91,2.95,8.45Z"/>
      <path class="cls-9" d="M563.38,148.65c-.16,1.23.26,2.39-.8,2.98-1.12.62-2.19.22-3.09-.6-2.82-2.54-4.92-5.45-4.68-9.49.13-2.24,1.57-3.12,3.32-1.82,3.05,2.27,5.07,5.24,5.25,8.93Z"/>
      <path class="cls-15" d="M577.82,142.24c-.24,1.43.71,3.65-1.78,4.42-1.51.46-2.69-1-3.69-3.9-.78-2.23-.54-4.48-.39-6.73.08-1.2.97-2.18,2.09-2.46,1.32-.33,2,.82,2.59,1.78.67,1.09,1.19,4.25,1.18,6.9Z"/>
      <path class="cls-41" d="M580.45,119.16c-.08,1.65-.05,3.08-.25,4.47-.16,1.07-.95,1.71-2.06,1.83-.92.09-1.79-.16-2.09-1.07-1.03-3.04-2.46-6.06-1.03-9.39.46-1.08,1.01-2.15,2.35-2.12,1.45.03,2.39,1.06,2.71,2.31.35,1.34.28,2.8.37,3.97Z"/>
      <path class="cls-12" d="M639.67,219.14c-1.88-.01-3.72-.28-5.43-.99-1.77-.74-1.89-2.28-.2-3.09,4.89-2.32,10.04-2.83,15.34-1.76.73.15,1.39.53,1.58,1.25.26.95-.36,1.59-1.08,2.13-1.17.88-2.54,1.31-3.91,1.58-2.08.41-4.2.59-6.31.88Z"/>
      <path class="cls-29" d="M283.89,353.76c.73-.78,1.65-.81,2.61-.65-.71.85-1.66.79-2.61.65Z"/>
      <path class="cls-23" d="M381.24,61.79c11.11,6.56,17.98,16.98,25.71,27.45-3.05.86-5.44.39-7.78.53-2.8.17-3.37.86-2.26,3.43,1.85,4.3,3.91,8.51,7.43,11.78,2.07,1.93,4.08,3.92,6.57,6.31-2.35.85-4.15,1.21-6.03,1.54-4.47.77-4.67,2.79-3.61,5.85,1.22,3.54,3.67,6.02,6.16,8.45,2.31,2.26,4.89,4.31,7.85,5.75,1.34.65,1.57,1.44.53,2.62-1.46,1.65-2.95,2.2-5.25,1.48-6.94-2.19-11.51-6.96-14.95-13.05-2.96-5.24-4.37-10.94-5.28-16.88-.89-5.8-.38-11.6-.82-17.37-.56-7.36-2.67-14.41-5.5-21.23l-2.77-6.66Z"/>
    </g>
  </g>
</svg>