<?xml version="1.0" encoding="UTF-8"?>
<svg id="Layer_2" data-name="Layer 2" xmlns="http://www.w3.org/2000/svg" xmlns:xlink="http://www.w3.org/1999/xlink" viewBox="0 0 1008.78 787">
  <defs>
    <style>
      .cls-1 {
        fill: none;
      }

      .cls-2 {
        fill: #a6d12f;
      }

      .cls-3 {
        fill: #fc8465;
      }

      .cls-4 {
        fill: #a8a588;
      }

      .cls-5 {
        fill: #f49a5d;
      }

      .cls-6 {
        fill: #feb07b;
      }

      .cls-7 {
        fill: #feeabc;
      }

      .cls-8 {
        fill: #fc7256;
      }

      .cls-9 {
        fill: #82716d;
      }

      .cls-10 {
        fill: #ee6c52;
      }

      .cls-11 {
        fill: #e5cf9c;
      }

      .cls-12 {
        fill: #999773;
      }

      .cls-13 {
        fill: #ba8a1e;
      }

      .cls-14 {
        fill: #cfccb9;
      }

      .cls-15 {
        fill: #f46c42;
      }

      .cls-16 {
        fill: #98957c;
      }

      .cls-17 {
        fill: #82a818;
      }

      .cls-18 {
        fill: #f1f2f2;
      }

      .cls-19 {
        fill: #fee5ab;
      }

      .cls-20 {
        fill: #ead49f;
      }

      .cls-21 {
        clip-path: url(#clippath-1);
      }

      .cls-22 {
        clip-path: url(#clippath-3);
      }

      .cls-23 {
        clip-path: url(#clippath-2);
      }

      .cls-24 {
        fill: #8ab515;
      }

      .cls-25 {
        fill: #dc623c;
      }

      .cls-26 {
        fill: #fff;
      }

      .cls-27 {
        fill: #ee7d60;
      }

      .cls-28 {
        fill: #987219;
      }

      .cls-29 {
        fill: #a9a484;
      }

      .cls-30 {
        fill: #5b4c49;
      }

      .cls-31 {
        fill: #f3e7cd;
      }

      .cls-32 {
        fill: #feedc3;
      }

      .cls-33 {
        fill: #e3c68c;
      }

      .cls-34 {
        fill: #91c422;
      }

      .cls-35 {
        fill: #fde2ae;
      }

      .cls-36 {
        fill: #e6e7e8;
      }

      .cls-37 {
        fill: #8a8969;
      }

      .cls-38 {
        fill: #fcdb9a;
      }

      .cls-39 {
        clip-path: url(#clippath);
      }

      .cls-40 {
        fill: #e1643d;
      }
    </style>
    <clipPath id="clippath">
      <rect class="cls-1" x="56.78" width="896" height="287.94"/>
    </clipPath>
    <clipPath id="clippath-1">
      <rect class="cls-1" x="56.78" width="896" height="262.6"/>
    </clipPath>
    <clipPath id="clippath-2">
      <rect class="cls-1" y="755.94" width="1008.78" height="21.33"/>
    </clipPath>
    <clipPath id="clippath-3">
      <rect class="cls-1" y="775.94" width="1008.78" height="11.06"/>
    </clipPath>
  </defs>
  <g id="Layer_1-2" data-name="Layer 1">
    <g>
      <path class="cls-19" d="M106.23,711.89h796.55v-441.46H106.23v441.46Z"/>
      <path class="cls-11" d="M860.93,576.52h-223.42v-35.44h6.36v-136.71h210.7v136.71h6.36v35.44M646.5,550.06v17.47h205.45v-8.79h5.29v-8.68h-11.64v-136.72h-192.73v136.72h-6.36"/>
      <path class="cls-32" d="M106.23,711.82h32.59v-421.51h-32.59v421.51Z"/>
      <path class="cls-38" d="M106.23,245.68v24.75h796.54v-24.75L504.51,34.56,106.23,245.68"/>
      <path class="cls-12" d="M74.7,756.06h859.6v-44.24H74.7v44.24Z"/>
      <path class="cls-29" d="M934.31,733.94h-77.46v-14.77h77.46v14.77M847.46,733.94h-109.85v-14.77h109.85v14.77M728.22,733.94h-447.44v-14.77h447.44v14.77M271.4,733.94h-109.85v-14.77h109.85v14.77M152.16,733.94h-77.45v-14.77h77.45v14.77"/>
      <path class="cls-11" d="M902.78,711.82h-41.84v-421.51H106.23v-19.89h796.54v441.39"/>
      <path class="cls-33" d="M902.78,270.43h-41.84l-.66-11.31L504.51,70.87l-373.06,199.56h-25.21v-7.63L504.51,51.68l398.27,211.11v7.63"/>
      <path class="cls-26" d="M595.35,385.76h-181.69v326.06h181.69v-326.06"/>
      <path class="cls-5" d="M425.94,711.82v-311.15h157.14v311.15h-157.14"/>
      <path class="cls-6" d="M493.36,498.11h-52.57c-2.57-2.57-4.01-4.01-6.58-6.57v-76.48l6.58-6.58h52.57c2.57,2.57,4.01,4.01,6.57,6.58v76.48c-2.56,2.57-4.01,4.01-6.57,6.57"/>
      <path class="cls-6" d="M567.99,498.11h-52.57l-6.57-6.57v-76.48c2.57-2.57,4.01-4.01,6.57-6.58h52.57c2.57,2.57,4.01,4.01,6.57,6.58v76.48l-6.57,6.57"/>
      <path class="cls-6" d="M493.36,599.05h-52.57c-2.57-2.57-4.01-4.01-6.58-6.57v-76.48c2.57-2.57,4.01-4.01,6.58-6.58h52.57c2.57,2.57,4.01,4.01,6.57,6.58v76.48c-2.56,2.56-4.01,4-6.57,6.57"/>
      <path class="cls-6" d="M567.99,599.05h-52.57c-2.57-2.57-4.01-4.01-6.57-6.57v-76.48c2.57-2.57,4.01-4.01,6.57-6.58h52.57c2.57,2.57,4.01,4.01,6.57,6.58v76.48c-2.57,2.56-4.01,4-6.57,6.57"/>
      <path class="cls-6" d="M493.36,698.61h-52.57c-2.57-2.57-4.01-4.01-6.58-6.57v-76.49c2.57-2.56,4.01-4,6.58-6.57h52.57c2.57,2.57,4.01,4.01,6.57,6.57v76.49c-2.56,2.56-4.01,4-6.57,6.57"/>
      <path class="cls-6" d="M567.99,698.61h-52.57c-2.57-2.57-4.01-4.01-6.57-6.57v-76.49c2.57-2.56,4.01-4,6.57-6.57h52.57c2.57,2.57,4.01,4.01,6.57,6.57v76.49c-2.57,2.56-4.01,4-6.57,6.57"/>
      <path class="cls-36" d="M633.35,741.31h-257.7v14.75h257.7v-14.75"/>
      <path class="cls-18" d="M633.35,741.31h-257.7v5.51h257.7v-5.51"/>
      <path class="cls-36" d="M617.03,726.56h-225.05v14.75h225.05v-14.75"/>
      <path class="cls-18" d="M617.03,726.56h-225.05v5.18h225.05v-5.18"/>
      <path class="cls-36" d="M599.43,711.82h-189.85v14.74h189.85v-14.74"/>
      <path class="cls-18" d="M599.43,711.82h-189.85v5.5h189.85v-5.5"/>
      <path class="cls-15" d="M324.78,95.28v-60.71h-134.05v131.77l134.05-71.06"/>
      <g class="cls-39">
        <path class="cls-12" d="M504.51.01L57.46,236.97v50.73h1.78L504.51,51.68l445.26,236.02h1.78v-50.73L504.51.01"/>
      </g>
      <g class="cls-21">
        <path class="cls-4" d="M504.51.01L57.47,236.97v25.53L504.51,25.53l447.04,236.97v-25.53L504.51.01"/>
      </g>
      <path class="cls-36" d="M324.78,95.28v-60.71h-134.05,134.05v60.71"/>
      <path class="cls-25" d="M302.78,106.93v-46.89h-112.05v-25.48h134.05v60.71l-21.99,11.66"/>
      <path class="cls-37" d="M302.78,106.93l21.99-11.66-21.99,11.66"/>
      <path class="cls-16" d="M302.78,106.93l21.99-11.66-21.99,11.66"/>
      <path class="cls-15" d="M342.84,48.6h-169.49c-2.42,0-4.39-1.96-4.39-4.39v-20.28c0-2.42,1.96-4.39,4.39-4.39h169.49c2.42,0,4.39,1.97,4.39,4.39v20.28c0,2.43-1.96,4.39-4.39,4.39"/>
      <path class="cls-11" d="M379.35,576.52h-223.42v-35.44h6.36v-136.71h210.69v136.71h6.36v35.44M177.45,527.1v19.99h180.4v-19.99c.4,0,.78,0,1.17,0,.97,0,1.94-.01,2.91-.03v-112.29h-65.99c.1.91.24,1.91.43,2.97h-57.49c.19-1.06.33-2.06.43-2.97h-65.99v112.29c.96.02,1.94.03,2.91.03.42,0,.83,0,1.24,0"/>
      <path class="cls-30" d="M659.02,547.09h180.4v-129.33h-180.4v129.33Z"/>
      <path class="cls-9" d="M684.78,535.24h-16.56v-8.63c6.15-.67,11.05-2.13,12.2-4.97.8-1.96,1.12-6.4,1.13-12.13l59.84-74.9v29.76l-56.61,70.87"/>
      <path class="cls-9" d="M680.18,479.62c-.48-6.46-1.01-12.55-1.44-17.34l.07-.09c25.2-9.53,35.46-24.88,39.59-36.69h5.01l-43.23,54.13"/>
      <path class="cls-9" d="M777.86,535.24h-16.56v-9.03l52.9-66.23c1.73.78,3.54,1.53,5.44,2.24-.56,6.17-1.28,14.51-1.84,23.03l-39.94,49.99"/>
      <path class="cls-9" d="M761.31,494.6v-19.15l27.42-34.32c2.32,2.88,5.13,5.75,8.49,8.51l-35.91,44.96"/>
      <path class="cls-3" d="M654.88,527.08c11.21.21,23.6-.69,25.54-5.44,3.64-8.96-2.66-69.43-2.66-69.43-1.27-18.63-4.67-30.22-8.62-37.42h-14.27v112.29"/>
      <path class="cls-8" d="M720.88,414.79h-65.99v53.68c55.02-9.24,64.51-40.41,65.99-53.68"/>
      <path class="cls-27" d="M673.66,523.66s4.65-9.46,4.07-21.24c-.58-11.78-.67-33.95-.67-33.95,0,0,4.07,42.67,1.99,48.47-2.08,5.81-5.4,6.72-5.4,6.72"/>
      <path class="cls-10" d="M666.98,462.34s21.08-9.79,31.04-18.42,17.43-18.42,17.43-18.42c0,0-6.64,16.09-21.08,25.06s-27.39,11.78-27.39,11.78"/>
      <path class="cls-10" d="M670.24,448.04s11.34-5.28,16.7-9.92c5.36-4.65,9.38-9.92,9.38-9.92,0,0-3.57,8.67-11.34,13.49-7.77,4.82-14.73,6.34-14.73,6.34"/>
      <path class="cls-3" d="M843.5,527.08c-11.22.21-23.6-.69-25.55-5.44-3.64-8.96,2.66-69.43,2.66-69.43,1.27-18.63,4.67-30.22,8.61-37.42h14.28v112.29"/>
      <path class="cls-8" d="M777.51,414.79h65.99v53.68c-55.02-9.24-64.51-40.41-65.99-53.68"/>
      <path class="cls-27" d="M824.72,523.66s-3.32-.91-5.4-6.72,1.99-48.47,1.99-48.47c0,0-.08,22.17-.67,33.95-.58,11.78,4.07,21.24,4.07,21.24"/>
      <path class="cls-10" d="M831.4,462.34s-12.94-2.82-27.39-11.78c-14.44-8.96-21.08-25.06-21.08-25.06,0,0,7.47,9.79,17.43,18.42s31.04,18.42,31.04,18.42"/>
      <path class="cls-10" d="M828.14,448.04s-6.97-1.52-14.73-6.34c-7.78-4.82-11.35-13.49-11.35-13.49,0,0,4.02,5.27,9.38,9.92,5.35,4.64,16.7,9.92,16.7,9.92"/>
      <path class="cls-18" d="M834.41,541.43h-79.92v-117.81h79.92v117.81M743.95,541.43h-79.91v-117.81h79.91v117.81M652.86,413.34v138.17h192.73v-138.17h-192.73"/>
      <path class="cls-12" d="M646.5,567.53h205.45v-17.47h-205.45v17.47Z"/>
      <path class="cls-30" d="M177.45,547.09h180.4v-129.33h-180.4v129.33Z"/>
      <path class="cls-9" d="M203.2,535.24h-16.56v-8.63c6.15-.67,11.05-2.13,12.2-4.97.8-1.96,1.12-6.4,1.14-12.13l59.83-74.9v29.76l-56.61,70.87"/>
      <path class="cls-9" d="M198.6,479.62c-.48-6.46-1-12.55-1.44-17.34l.08-.09c25.2-9.53,35.46-24.88,39.59-36.69h5.01l-43.23,54.13"/>
      <path class="cls-9" d="M296.29,535.24h-16.56v-9.03l52.91-66.23c1.73.78,3.54,1.53,5.43,2.24-.57,6.17-1.28,14.51-1.84,23.03l-39.94,49.99"/>
      <path class="cls-9" d="M279.73,494.6v-19.15l27.42-34.32c2.33,2.88,5.13,5.76,8.49,8.51l-35.91,44.96"/>
      <path class="cls-3" d="M173.3,527.08c11.21.21,23.61-.69,25.54-5.44,3.65-8.96-2.65-69.43-2.65-69.43-1.27-18.63-4.67-30.22-8.62-37.42h-14.27v112.29"/>
      <path class="cls-8" d="M239.3,414.79h-65.99v53.68c55.02-9.24,64.51-40.41,65.99-53.68"/>
      <path class="cls-27" d="M192.08,523.66s4.65-9.46,4.07-21.24-.67-33.95-.67-33.95c0,0,4.07,42.67,1.99,48.47s-5.4,6.72-5.4,6.72"/>
      <path class="cls-10" d="M185.41,462.34s21.08-9.79,31.03-18.42c9.96-8.63,17.43-18.42,17.43-18.42,0,0-6.64,16.09-21.08,25.06-14.43,8.96-27.38,11.78-27.38,11.78"/>
      <path class="cls-10" d="M188.66,448.04s11.34-5.28,16.7-9.92c5.36-4.65,9.38-9.92,9.38-9.92,0,0-3.57,8.67-11.34,13.49-7.78,4.82-14.74,6.34-14.74,6.34"/>
      <path class="cls-3" d="M361.92,527.08c-11.21.21-23.61-.69-25.54-5.44-3.65-8.96,2.65-69.43,2.65-69.43,1.27-18.63,4.67-30.22,8.63-37.42h14.27v112.29"/>
      <path class="cls-8" d="M295.93,414.79h65.99v53.68c-55.02-9.24-64.51-40.41-65.99-53.68"/>
      <path class="cls-27" d="M343.14,523.66s-3.32-.91-5.4-6.72,1.99-48.47,1.99-48.47c0,0-.08,22.17-.66,33.95s4.07,21.24,4.07,21.24"/>
      <path class="cls-10" d="M349.82,462.34s-12.95-2.82-27.39-11.78c-14.44-8.96-21.08-25.06-21.08-25.06,0,0,7.46,9.79,17.42,18.42s31.04,18.42,31.04,18.42"/>
      <path class="cls-10" d="M346.57,448.04s-6.97-1.52-14.74-6.34c-7.77-4.82-11.34-13.49-11.34-13.49,0,0,4.03,5.27,9.38,9.92,5.36,4.64,16.71,9.92,16.71,9.92"/>
      <path class="cls-18" d="M352.83,541.43h-79.92v-117.81h79.92v117.81ZM262.39,541.43h-79.92v-117.81h79.92v117.81ZM171.28,413.34v138.17h192.73v-138.17h-192.73"/>
      <path class="cls-12" d="M370.38,567.53h-205.45v-17.47h205.45v17.47"/>
      <path class="cls-31" d="M851.95,558.74h5.29v-8.68h-5.29v8.68Z"/>
      <path class="cls-14" d="M651.78,558.74h200.17v-8.68h-200.17v8.68Z"/>
      <path class="cls-33" d="M504.51,259.11c-38.35,0-69.44-31.09-69.44-69.44s31.09-69.44,69.44-69.44,69.44,31.09,69.44,69.44-31.09,69.44-69.44,69.44"/>
      <path class="cls-26" d="M568.23,189.67c0,35.19-28.53,63.72-63.72,63.72s-63.72-28.53-63.72-63.72,28.53-63.71,63.72-63.71,63.72,28.52,63.72,63.71"/>
      <path class="cls-30" d="M555.34,189.67c0,28.08-22.76,50.84-50.84,50.84s-50.84-22.76-50.84-50.84,22.76-50.84,50.84-50.84,50.84,22.76,50.84,50.84"/>
      <path class="cls-26" d="M510.88,139.27c-2.09-.26-4.21-.44-6.37-.44s-4.28.18-6.36.44v44.03h-44.04c-.26,2.09-.44,4.21-.44,6.37s.18,4.28.44,6.37h44.04v44.03c2.09.26,4.2.44,6.36.44s4.28-.18,6.37-.44v-44.03h44.03c.26-2.09.44-4.21.44-6.37s-.18-4.28-.44-6.37h-44.03v-44.03"/>
      <path class="cls-7" d="M215.72,616.85h-54.11c-1.44,0-2.61-1.17-2.61-2.61v-21.69c0-1.44,1.17-2.6,2.61-2.6h54.11c1.44,0,2.61,1.16,2.61,2.6v21.69c0,1.45-1.17,2.61-2.61,2.61"/>
      <path class="cls-7" d="M379.95,667.24h-54.11c-1.44,0-2.61-1.16-2.61-2.6v-21.69c0-1.44,1.17-2.61,2.61-2.61h54.11c1.44,0,2.61,1.17,2.61,2.61v21.69c0,1.44-1.17,2.6-2.61,2.6"/>
      <path class="cls-35" d="M681.94,240.51h-54.11c-1.44,0-2.61-1.17-2.61-2.61v-21.69c0-1.44,1.17-2.61,2.61-2.61h54.11c1.44,0,2.61,1.17,2.61,2.61v21.69c0,1.44-1.17,2.61-2.61,2.61"/>
      <path class="cls-7" d="M582.4,343.03h-54.11c-1.44,0-2.61-1.17-2.61-2.61v-21.69c0-1.44,1.17-2.61,2.61-2.61h54.11c1.44,0,2.61,1.17,2.61,2.61v21.69c0,1.44-1.17,2.61-2.61,2.61"/>
      <path class="cls-20" d="M340.53,364.49h-54.11c-1.44,0-2.61-1.17-2.61-2.61v-21.69c0-1.44,1.17-2.6,2.61-2.6h54.11c1.44,0,2.61,1.17,2.61,2.6v21.69c0,1.44-1.17,2.61-2.61,2.61"/>
      <path class="cls-40" d="M267.91,110.38h-54.11c-1.44,0-2.61-1.17-2.61-2.61v-21.69c0-1.44,1.17-2.6,2.61-2.6h54.11c1.44,0,2.61,1.16,2.61,2.6v21.69c0,1.44-1.17,2.61-2.61,2.61"/>
      <path class="cls-20" d="M742.5,671.48h-54.11c-1.44,0-2.61-1.16-2.61-2.6v-21.69c0-1.44,1.17-2.61,2.61-2.61h54.11c1.44,0,2.61,1.17,2.61,2.61v21.69c0,1.44-1.17,2.6-2.61,2.6"/>
      <path class="cls-20" d="M809.99,337.59h-54.11c-1.44,0-2.61-1.17-2.61-2.61v-21.69c0-1.44,1.17-2.6,2.61-2.6h54.11c1.44,0,2.61,1.17,2.61,2.6v21.69c0,1.44-1.17,2.61-2.61,2.61"/>
      <path class="cls-13" d="M847.46,773.02h9.39v-83.89h-9.39v83.89Z"/>
      <path class="cls-28" d="M856.85,773.02h-4.04v-83.89h4.04v83.89"/>
      <path class="cls-34" d="M901.7,669.75c0,27.35-22.18,49.54-49.54,49.54s-49.55-22.18-49.55-49.54,22.18-49.54,49.55-49.54,49.54,22.18,49.54,49.54"/>
      <path class="cls-24" d="M862.71,621.36c14.36,8.67,24.01,24.39,24.01,42.4,0,27.35-22.18,49.53-49.54,49.53-3.63,0-7.15-.41-10.55-1.15,7.46,4.5,16.18,7.14,25.54,7.14,27.35,0,49.54-22.18,49.54-49.54,0-23.74-16.7-43.55-38.99-48.39"/>
      <path class="cls-13" d="M728.22,773.02h9.39v-83.89h-9.39v83.89Z"/>
      <path class="cls-28" d="M737.61,773.02h-4.05v-83.89h4.05v83.89"/>
      <path class="cls-34" d="M782.45,669.75c0,27.35-22.17,49.54-49.54,49.54s-49.54-22.18-49.54-49.54,22.18-49.54,49.54-49.54,49.54,22.18,49.54,49.54"/>
      <path class="cls-24" d="M743.47,621.36c14.36,8.67,24.01,24.39,24.01,42.4,0,27.35-22.18,49.53-49.54,49.53-3.63,0-7.15-.41-10.55-1.15,7.46,4.5,16.18,7.14,25.53,7.14,27.36,0,49.54-22.18,49.54-49.54,0-23.74-16.7-43.55-38.98-48.39"/>
      <path class="cls-13" d="M271.4,773.02h9.39v-83.89h-9.39v83.89Z"/>
      <path class="cls-28" d="M280.79,773.02h-4.04v-83.89h4.04v83.89"/>
      <path class="cls-34" d="M325.63,669.75c0,27.35-22.18,49.54-49.54,49.54s-49.54-22.18-49.54-49.54,22.18-49.54,49.54-49.54,49.54,22.18,49.54,49.54"/>
      <path class="cls-24" d="M286.64,621.36c14.37,8.67,24.01,24.39,24.01,42.4,0,27.35-22.18,49.53-49.54,49.53-3.63,0-7.15-.41-10.55-1.15,7.47,4.5,16.18,7.14,25.54,7.14,27.36,0,49.54-22.18,49.54-49.54,0-23.74-16.7-43.55-38.99-48.39"/>
      <path class="cls-13" d="M152.16,773.02h9.39v-83.89h-9.39v83.89Z"/>
      <path class="cls-28" d="M161.55,773.02h-4.04v-83.89h4.04v83.89"/>
      <path class="cls-34" d="M206.39,669.75c0,27.35-22.18,49.54-49.54,49.54s-49.54-22.18-49.54-49.54,22.18-49.54,49.54-49.54,49.54,22.18,49.54,49.54"/>
      <path class="cls-24" d="M167.41,621.36c14.36,8.67,24.01,24.39,24.01,42.4,0,27.35-22.18,49.53-49.54,49.53-3.63,0-7.15-.41-10.55-1.15,7.46,4.5,16.18,7.14,25.53,7.14,27.36,0,49.54-22.18,49.54-49.54,0-23.74-16.7-43.55-38.98-48.39"/>
      <g class="cls-23">
        <path class="cls-34" d="M1008.69,777.02H.32v-20.96h1008.36v20.96"/>
      </g>
      <g class="cls-22">
        <path class="cls-17" d="M1008.69,786.99H.32v-9.98h1008.36v9.98"/>
      </g>
      <path class="cls-2" d="M721.41,659.76c-7.05,6.06-16.58,6.53-21.3,1.05s-2.82-14.84,4.22-20.91c7.05-6.06,16.58-6.53,21.3-1.05,4.71,5.48,2.82,14.84-4.22,20.91"/>
      <path class="cls-2" d="M263.19,659.76c-7.05,6.06-16.58,6.53-21.3,1.05s-2.82-14.84,4.22-20.91c7.05-6.06,16.58-6.53,21.3-1.05,4.71,5.48,2.82,14.84-4.23,20.91"/>
      <path class="cls-2" d="M147.36,659.76c-7.05,6.06-16.58,6.53-21.3,1.05s-2.82-14.84,4.22-20.91c7.05-6.06,16.58-6.53,21.3-1.05,4.72,5.48,2.82,14.84-4.22,20.91"/>
      <path class="cls-2" d="M840.65,659.76c-7.05,6.06-16.58,6.53-21.3,1.05s-2.82-14.84,4.22-20.91c7.05-6.06,16.58-6.53,21.3-1.05,4.71,5.48,2.82,14.84-4.22,20.91"/>
    </g>
  </g>
</svg>