<svg xmlns="http://www.w3.org/2000/svg" xmlns:xlink="http://www.w3.org/1999/xlink" width="1920" zoomAndPan="magnify" viewBox="0 0 1440 809.999993" height="1080" preserveAspectRatio="xMidYMid meet" version="1.0"><defs><clipPath id="9ab05ab87b"><path d="M 473.613281 245 L 622 245 L 622 332 L 473.613281 332 Z M 473.613281 245 " clip-rule="nonzero"/></clipPath><clipPath id="61d73f1ee4"><path d="M 938 400 L 966.363281 400 L 966.363281 425 L 938 425 Z M 938 400 " clip-rule="nonzero"/></clipPath></defs><rect x="-144" width="1728" fill="#ffffff" y="-80.999999" height="971.999992" fill-opacity="1"/><rect x="-144" width="1728" fill="#ffffff" y="-80.999999" height="971.999992" fill-opacity="1"/><path fill="#fa7c35" d="M 675.859375 411.988281 C 676.324219 412.207031 676.710938 412.542969 677.324219 412.425781 C 688.332031 410.273438 699.078125 412.128906 709.742188 414.691406 C 717.878906 416.648438 725.898438 419.0625 733.851562 421.675781 C 734 422.96875 732.90625 422.847656 732.191406 423.0625 C 730.082031 423.691406 730.585938 424.742188 731.863281 425.621094 C 734.65625 427.542969 737.710938 427.699219 740.855469 426.535156 C 744.617188 429.21875 747.320312 432.65625 748.492188 437.195312 C 747.046875 438.125 745.410156 437.664062 743.859375 437.832031 C 743.089844 437.914062 741.878906 437.511719 741.769531 438.65625 C 741.675781 439.617188 742.84375 439.785156 743.589844 440.144531 C 746.140625 441.375 748.65625 441.421875 751.148438 439.976562 C 752.230469 440.074219 752.765625 440.9375 753.402344 441.625 C 769.746094 459.226562 790.109375 469.933594 812.960938 476.390625 C 820.453125 478.507812 828.078125 479.902344 835.785156 480.890625 C 837.195312 481.074219 838.539062 481.285156 839.339844 482.652344 C 839.363281 485.414062 837.121094 486.824219 835.613281 488.585938 C 832.117188 492.660156 832.085938 492.550781 834.71875 497.300781 C 837.179688 501.746094 840.070312 505.902344 843.046875 510 C 844.695312 512.894531 847.082031 515.148438 849.449219 517.417969 C 849.125 517.644531 848.019531 517.285156 848.542969 518.09375 C 849.277344 519.222656 850.398438 520.101562 851.355469 521.085938 C 853.042969 522.828125 854.738281 524.566406 856.429688 526.304688 C 855.09375 527.808594 853.289062 527.253906 851.660156 527.324219 C 846.65625 527.542969 845.148438 528.832031 844.269531 533.769531 C 843.875 535.976562 844.039062 538.199219 843.972656 540.414062 C 843.933594 541.675781 843.992188 542.972656 843.128906 544.039062 C 841.757812 545.191406 840.734375 544.054688 839.734375 543.417969 C 825.421875 534.296875 811.695312 524.339844 798.175781 514.09375 C 795.984375 512.433594 793.644531 510.972656 791.480469 508.964844 C 791.640625 510.519531 792.433594 511.933594 791.355469 513.257812 C 789.070312 515.085938 786.238281 515.253906 783.554688 515.789062 C 767.355469 519.027344 751.367188 517.253906 735.523438 513.425781 C 722.246094 510.222656 708.941406 507.433594 695.160156 508.191406 C 694.203125 508.246094 693.242188 508.179688 692.324219 507.867188 C 690.949219 507.273438 690.929688 506.074219 691.199219 504.914062 C 692.164062 500.738281 693.046875 496.550781 692.972656 492.832031 C 689.800781 499.078125 685.683594 505.347656 679.667969 510.183594 C 677.382812 512.4375 674.8125 514.363281 672.472656 516.554688 C 667.667969 519.738281 662.5 522.160156 657.074219 524.074219 C 652.828125 525.574219 648.441406 526.234375 643.996094 526.664062 C 636.097656 527.0625 628.304688 526.554688 620.78125 523.875 C 619.214844 523.316406 617.453125 523.007812 616.570312 521.300781 C 612.671875 519.082031 608.761719 516.886719 604.882812 514.636719 C 603.535156 513.855469 602.132812 513.136719 600.992188 512.035156 C 599.398438 509.355469 600.054688 506.484375 600.363281 503.679688 C 600.570312 501.789062 601.140625 499.9375 601.886719 498.183594 C 603.984375 493.273438 605.683594 488.304688 605.21875 482.839844 C 605.144531 482.003906 605.320312 481.144531 605.929688 480.46875 C 606.988281 480.441406 608.050781 480.355469 609.105469 480.394531 C 614.828125 480.585938 619.078125 477.929688 622.273438 473.441406 C 625.195312 469.347656 626.914062 464.644531 628.59375 459.953125 C 632.121094 450.117188 636.535156 440.769531 643.164062 432.582031 C 644.015625 431.523438 645.171875 430.691406 645.683594 429.367188 C 653.171875 419.109375 663.574219 413.914062 675.859375 411.988281 Z M 675.859375 411.988281 " fill-opacity="1" fill-rule="nonzero"/><path fill="#fb7c35" d="M 795.207031 279.957031 C 800.296875 283.285156 804.539062 287.617188 809 291.679688 C 813.003906 295.324219 816.699219 299.300781 819.960938 303.632812 C 820.816406 304.765625 821.710938 305.027344 822.957031 304.699219 C 830.160156 302.816406 837.507812 301.816406 844.917969 301.246094 C 846.078125 301.15625 847.246094 301.050781 848.410156 301.023438 C 851.761719 300.957031 851.523438 301.214844 851.535156 297.929688 C 851.546875 294.652344 851.234375 291.359375 851.878906 288.101562 C 853.753906 290.332031 852.761719 292.988281 852.863281 295.441406 C 853.039062 299.753906 852.921875 299.789062 857.210938 300.109375 C 868.703125 300.96875 880.0625 302.5 890.78125 307.066406 C 896.46875 309.488281 901.9375 312.316406 906.96875 315.953125 C 908.796875 317.273438 910.40625 318.753906 911.578125 320.6875 C 924.417969 331.523438 931.652344 345.742188 936.359375 361.527344 C 939.355469 371.5625 940.65625 381.90625 942.046875 392.230469 C 942.40625 394.894531 943.398438 396.46875 945.976562 397.277344 C 949.503906 398.382812 952.917969 399.839844 956.617188 400.355469 C 956 401.542969 954.835938 401.390625 953.824219 401.390625 C 951.210938 401.390625 948.839844 402.269531 946.46875 403.210938 C 943.425781 404.417969 940.746094 406 939.664062 409.382812 C 939.46875 409.992188 939.011719 410.46875 938.382812 410.734375 C 930.917969 411.886719 923.371094 412.113281 915.855469 412.347656 C 905.875 412.65625 895.871094 412.621094 885.890625 412.375 C 873.230469 412.0625 860.726562 410.082031 848.210938 408.3125 C 834.21875 406.339844 820.203125 404.628906 806.027344 404.746094 C 794.320312 404.847656 782.695312 405.8125 771.144531 407.714844 C 769.367188 408.007812 767.601562 408.429688 765.785156 408.457031 C 765.230469 408.457031 764.691406 408.359375 764.179688 408.152344 C 761.304688 405.121094 761.839844 401.285156 762.085938 397.707031 C 762.675781 388.886719 765.890625 380.761719 769.597656 372.867188 C 770.699219 370.511719 770.324219 369.222656 768.324219 367.839844 C 765.867188 366.136719 763.976562 363.8125 762.050781 361.546875 C 762.261719 360.304688 761.339844 359.644531 760.699219 358.816406 C 750.769531 345.988281 744.382812 331.546875 741.117188 315.691406 C 741.035156 315.289062 741.113281 314.851562 741.117188 314.433594 C 744.960938 313.984375 748.199219 315.996094 751.679688 317.019531 C 753.742188 318.96875 753.878906 321.800781 754.785156 324.234375 C 759.628906 337.25 767.277344 348.3125 777.367188 357.78125 C 778.855469 359.179688 779.671875 359.421875 781.054688 357.566406 C 789.300781 346.503906 799.160156 337.027344 810.054688 328.609375 C 813.878906 325.652344 813.96875 325.5 811.726562 321.046875 C 806.675781 311.019531 799.460938 302.71875 791.113281 295.335938 C 790.007812 294.355469 788.644531 293.617188 788.386719 291.960938 C 790.203125 287.710938 791.84375 283.34375 795.207031 279.957031 Z M 795.207031 279.957031 " fill-opacity="1" fill-rule="nonzero"/><path fill="#fa7d34" d="M 615.648438 269.441406 C 622.035156 274.230469 628.003906 279.472656 633.355469 285.425781 C 643.488281 296.699219 650.160156 309.839844 654.683594 324.183594 C 657.945312 334.535156 659.875 345.183594 661.652344 355.863281 C 663.535156 367.164062 664.722656 378.582031 667.378906 389.75 C 667.425781 389.949219 667.367188 390.171875 667.359375 390.382812 C 667.304688 392.746094 665.660156 393.617188 663.738281 394.183594 C 654.210938 396.988281 644.480469 397.632812 634.660156 396.601562 C 609.355469 393.949219 589.097656 381.550781 572.011719 363.425781 C 564.105469 355.039062 557.832031 345.355469 551.675781 335.636719 C 551.167969 334.835938 550.664062 334 550.59375 332.996094 C 550.75 335.460938 550.902344 337.9375 550.511719 340.382812 C 550.351562 341.378906 549.980469 342.789062 548.640625 341.074219 C 547.859375 337.621094 548.242188 334.125 548.277344 330.65625 C 548.335938 324.851562 548.210938 319.042969 548.453125 313.246094 C 549.054688 310.761719 550.757812 311.109375 552.433594 311.828125 C 557.25 313.890625 561.621094 316.738281 565.8125 319.839844 C 569.835938 322.816406 573.945312 325.644531 578.265625 328.167969 C 580.292969 329.355469 582.382812 330.414062 584.765625 330.664062 C 588.121094 331.015625 589.707031 329.953125 590.617188 326.667969 C 591.964844 321.792969 590.9375 316.933594 590.242188 312.121094 C 589.25 305.273438 587.476562 298.585938 585.507812 291.957031 C 585 290.25 584.078125 288.21875 585.777344 286.910156 C 587.316406 285.726562 589.050781 287.019531 590.503906 287.800781 C 596.246094 290.875 601.460938 294.722656 606.34375 299.023438 C 608.976562 301.34375 611.625 303.667969 614.734375 305.34375 C 618.085938 307.152344 619.804688 306.300781 620.773438 302.601562 C 621.8125 298.640625 620.878906 294.769531 620.234375 290.910156 C 619.214844 284.816406 617.3125 278.9375 615.441406 273.058594 C 615.078125 271.921875 613.894531 270.535156 615.648438 269.441406 Z M 615.648438 269.441406 " fill-opacity="1" fill-rule="nonzero"/><path fill="#ffefd2" d="M 765.167969 407.710938 C 772.269531 406.421875 779.40625 405.308594 786.59375 404.714844 C 797.296875 403.835938 808.015625 403.421875 818.761719 404.195312 C 824.164062 404.582031 829.566406 404.914062 834.9375 405.652344 C 842.1875 406.648438 849.460938 407.488281 856.707031 408.523438 C 863.855469 409.546875 871.011719 410.367188 878.210938 410.933594 C 890.746094 411.921875 903.289062 411.730469 915.824219 411.378906 C 923.46875 411.167969 931.09375 410.457031 938.726562 409.96875 C 939.394531 410.222656 939.597656 410.839844 939.839844 411.417969 C 942.652344 418.140625 947.621094 422.203125 954.796875 423.554688 C 955.324219 423.652344 955.804688 423.847656 956.085938 424.347656 C 955.59375 425.054688 953.816406 424.847656 954.644531 426.523438 C 954.957031 427.164062 954.285156 427.671875 953.84375 428.105469 C 950.851562 431.0625 947.851562 434.003906 944.851562 436.949219 C 941.417969 437.378906 938.101562 438.484375 934.585938 438.496094 C 925.734375 438.527344 923.265625 437.789062 915.089844 432.136719 C 915.832031 434.136719 917.074219 435.261719 918.53125 436.230469 C 922.363281 438.773438 926.609375 439.859375 931.164062 440.015625 C 932.695312 440.066406 934.390625 439.535156 935.65625 440.9375 C 935.574219 442.105469 935.730469 443.117188 934.308594 443.976562 C 931.621094 445.59375 928.953125 447.207031 926.074219 448.460938 C 923.011719 448.890625 920.214844 450.21875 917.277344 451.074219 C 895.601562 457.363281 873.417969 459.769531 851.023438 458.121094 C 825.867188 456.273438 802.410156 448.800781 782.316406 432.847656 C 775.015625 427.054688 768.769531 420.238281 764.929688 411.5625 C 764.375 410.316406 763.171875 408.871094 765.167969 407.710938 Z M 765.167969 407.710938 " fill-opacity="1" fill-rule="nonzero"/><g clip-path="url(#9ab05ab87b)"><path fill="#fff0d3" d="M 615.648438 269.441406 C 614.679688 270.429688 615.730469 271.226562 615.992188 272.015625 C 618.484375 279.601562 620.789062 287.222656 621.707031 295.195312 C 622.035156 298.070312 622.144531 300.933594 621.390625 303.75 C 620.484375 307.128906 618.617188 308.023438 615.417969 306.675781 C 613.03125 305.675781 611.0625 304.027344 609.082031 302.417969 C 604.292969 298.539062 599.808594 294.261719 594.472656 291.089844 C 592.554688 289.949219 590.59375 288.878906 588.605469 287.871094 C 587.773438 287.449219 586.820312 287.269531 585.894531 286.972656 C 585.089844 288.625 585.828125 290.007812 586.222656 291.402344 C 588.621094 299.789062 590.90625 308.199219 591.726562 316.921875 C 592.046875 320.316406 592.230469 323.722656 591.417969 327.078125 C 590.464844 331.015625 588.410156 332.332031 584.402344 331.574219 C 581.855469 331.089844 579.621094 329.824219 577.386719 328.597656 C 573.085938 326.242188 569.15625 323.316406 565.195312 320.441406 C 561.148438 317.507812 557.011719 314.691406 552.414062 312.664062 C 551.4375 312.234375 550.34375 311.296875 549.191406 312.429688 C 548.449219 317.042969 549.277344 321.71875 548.746094 326.5625 C 546.953125 326.507812 546.464844 325.136719 545.828125 324.011719 C 540.992188 315.511719 536.605469 306.75 531.023438 298.6875 C 518.738281 280.953125 502.894531 268.109375 481.636719 262.6875 C 479.90625 262.246094 478.316406 261.292969 476.46875 261.289062 C 475.589844 260.746094 474.375 260.902344 473.613281 259.921875 C 474.386719 258.835938 475.472656 258.226562 476.613281 257.742188 C 486.875 253.378906 497.445312 249.941406 508.4375 248.074219 C 514.667969 247.015625 520.957031 246.230469 527.308594 245.851562 C 531.863281 245.574219 536.414062 245.28125 540.960938 245.394531 C 549.3125 245.605469 557.609375 246.449219 565.808594 248.175781 C 574.21875 249.953125 582.460938 252.191406 590.390625 255.546875 C 599.289062 259.316406 607.941406 263.519531 615.648438 269.441406 Z M 615.648438 269.441406 " fill-opacity="1" fill-rule="nonzero"/></g><path fill="#f25029" d="M 549.367188 341.816406 C 550.367188 340.132812 549.75 338.28125 549.871094 336.511719 C 549.980469 334.921875 549.894531 333.324219 549.894531 331.765625 C 550.28125 331.53125 550.507812 331.679688 550.664062 331.964844 C 555.683594 341.234375 561.8125 349.769531 568.378906 357.960938 C 576.136719 367.636719 585.425781 375.730469 595.9375 382.285156 C 606.003906 388.5625 616.878906 392.867188 628.65625 394.9375 C 635.410156 396.125 642.171875 396.347656 648.941406 396.023438 C 653.886719 395.78125 658.796875 394.796875 663.59375 393.445312 C 665.253906 392.980469 666.667969 392.101562 667.359375 390.386719 C 669.449219 397.199219 671.464844 404.042969 675.003906 410.300781 C 675.316406 410.851562 675.574219 411.425781 675.855469 411.988281 C 674.921875 412.996094 673.617188 413.066406 672.398438 413.367188 C 662.574219 415.78125 653.890625 420.105469 647.515625 428.269531 C 647.019531 428.90625 646.480469 429.300781 645.683594 429.367188 C 635.972656 428.300781 626.242188 427.386719 616.554688 426.136719 C 597.289062 423.648438 578.917969 418.320312 562.410156 407.742188 C 541.644531 394.441406 527.617188 376.171875 522.050781 351.859375 C 521.386719 348.960938 520.941406 346.011719 520.394531 343.085938 C 519.886719 342.0625 520.46875 340.894531 519.976562 339.867188 C 519.984375 339.683594 519.976562 339.503906 519.949219 339.324219 C 521.699219 338.484375 522.113281 340.109375 522.773438 340.988281 C 526.417969 345.804688 529.910156 350.734375 534.359375 354.886719 C 535.601562 356.050781 536.871094 357.164062 538.332031 358.039062 C 541.894531 360.183594 544.234375 359.421875 545.804688 355.480469 C 546.828125 352.917969 547.492188 350.257812 547.863281 347.5 C 548.125 345.570312 547.941406 343.460938 549.367188 341.816406 Z M 549.367188 341.816406 " fill-opacity="1" fill-rule="nonzero"/><path fill="#fbd3a7" d="M 765.167969 407.710938 C 764.574219 408.472656 764.683594 409.1875 765.074219 410.0625 C 767.175781 414.742188 769.816406 419.117188 773.199219 422.945312 C 780.519531 431.226562 789.292969 437.671875 799.078125 442.792969 C 808.53125 447.742188 818.503906 451.292969 828.84375 453.800781 C 833.453125 454.917969 838.1875 455.480469 842.863281 456.289062 C 854.289062 458.269531 865.757812 457.332031 877.195312 457.320312 C 882.648438 457.316406 888.132812 456.296875 893.539062 455.371094 C 900.40625 454.199219 907.265625 452.914062 913.996094 451.046875 C 917.363281 450.113281 920.734375 449.195312 924.089844 448.226562 C 924.824219 448.011719 925.496094 447.664062 926.078125 448.464844 C 914.277344 455.027344 901.597656 459.121094 888.457031 461.929688 C 883.386719 463.011719 878.300781 464.046875 873.121094 464.492188 C 872.308594 464.5625 871.597656 464.875 871.382812 465.660156 C 869.757812 471.515625 867.011719 476.921875 864.703125 482.5 C 864.476562 483.46875 864.035156 484.097656 862.898438 483.671875 C 858.816406 482.777344 854.683594 483.398438 850.578125 483.296875 C 847.292969 483.214844 844.039062 483.066406 840.863281 482.144531 C 839.648438 480.84375 840.757812 479.800781 841.304688 478.746094 C 842.824219 475.820312 844.652344 473.0625 846.066406 470.074219 C 847.355469 467.355469 847.320312 467.183594 844.371094 467.25 C 832.1875 467.523438 820.148438 466.0625 808.203125 463.945312 C 794.738281 461.554688 781.636719 457.886719 769.515625 451.304688 C 767.921875 450.441406 766.320312 449.582031 764.925781 448.425781 C 763.046875 446.867188 763.140625 445.972656 765.324219 444.964844 C 767.421875 443.996094 769.679688 443.375 772.242188 441.96875 C 767.652344 439.910156 763.476562 438.164062 759.585938 435.835938 C 754.914062 433.035156 750.492188 429.914062 746.296875 426.453125 C 745.558594 425.84375 744.804688 425.230469 744.683594 424.175781 C 741.832031 421.195312 738.980469 418.214844 735.8125 414.90625 C 741.160156 413.433594 746.164062 412.050781 751.339844 410.625 C 750.363281 409.859375 749.179688 410.519531 748.5 409.644531 C 748.707031 409.40625 748.890625 409.066406 749.210938 409.046875 C 754.128906 408.746094 758.964844 407.609375 763.914062 407.648438 C 764.335938 407.667969 764.753906 407.6875 765.167969 407.710938 Z M 765.167969 407.710938 " fill-opacity="1" fill-rule="nonzero"/><path fill="#fbd4a9" d="M 672.65625 516.121094 C 672.453125 515.21875 673.113281 514.832031 673.679688 514.359375 C 675.4375 512.882812 677.179688 511.386719 678.925781 509.894531 C 681.082031 508.421875 683.386719 507.535156 686.054688 508.046875 C 697.730469 512.019531 708.988281 517.195312 721.15625 519.734375 C 743.316406 524.367188 765.332031 523.433594 787.277344 518.375 C 789.246094 517.921875 791.175781 517.28125 793.1875 517.03125 C 794.371094 516.945312 795.21875 517.546875 795.832031 518.464844 C 798.53125 522.503906 801.398438 526.402344 804.917969 529.789062 C 805.367188 530.21875 805.671875 530.8125 805.429688 531.511719 C 799.578125 534.375 793.28125 535.871094 786.980469 537.226562 C 779.757812 538.78125 772.417969 539.957031 765.050781 540.324219 C 758.300781 540.660156 751.515625 540.757812 744.71875 540.011719 C 738.515625 539.332031 732.351562 538.597656 726.234375 537.355469 C 716.753906 535.429688 707.679688 532.257812 698.730469 528.667969 C 697.65625 528.238281 696.660156 527.5625 695.429688 527.621094 C 688.148438 524.496094 681.183594 520.699219 673.964844 517.429688 C 673.394531 517.171875 672.878906 516.773438 672.65625 516.121094 Z M 672.65625 516.121094 " fill-opacity="1" fill-rule="nonzero"/><path fill="#fdd2a6" d="M 549.367188 341.816406 C 548.867188 346.351562 548.449219 350.902344 546.824219 355.226562 C 546.371094 356.429688 545.914062 357.609375 545.027344 358.566406 C 543.394531 360.335938 541.789062 360.699219 539.601562 359.652344 C 535.167969 357.523438 532 353.894531 528.933594 350.226562 C 526.351562 347.132812 524.023438 343.820312 521.601562 340.59375 C 521.160156 340.003906 520.882812 339.257812 519.953125 339.324219 C 519.414062 332.050781 518.917969 324.769531 517.851562 317.554688 C 515.816406 303.777344 510.980469 291.058594 501.9375 280.34375 C 494.972656 272.089844 486.679688 265.332031 476.46875 261.289062 C 478.914062 260.71875 481.171875 261.765625 483.402344 262.347656 C 493.367188 264.949219 502.464844 269.503906 510.667969 275.675781 C 517.039062 280.472656 522.507812 286.261719 527.46875 292.523438 C 534.15625 300.953125 539.296875 310.328125 544.316406 319.789062 C 545.441406 321.917969 546.714844 323.96875 547.945312 326.085938 C 548.996094 325.507812 548.574219 324.679688 548.582031 324.03125 C 548.617188 321.058594 548.554688 318.082031 548.570312 315.105469 C 548.574219 314.179688 548.296875 313.160156 549.191406 312.429688 C 549.25 322.226562 549.308594 332.019531 549.367188 341.816406 Z M 549.367188 341.816406 " fill-opacity="1" fill-rule="nonzero"/><path fill="#511e1a" d="M 605.933594 480.46875 C 605.984375 482.265625 606.003906 484.066406 606.09375 485.863281 C 606.234375 488.5625 605.679688 491.121094 604.675781 493.601562 C 604.160156 494.875 603.652344 496.15625 603.113281 497.417969 C 601.128906 502.105469 600.554688 506.996094 600.992188 512.03125 C 598.085938 509.585938 595.878906 510.570312 593.160156 512.84375 C 587.117188 517.894531 580.492188 522.171875 573.410156 525.691406 C 568.523438 528.117188 563.421875 529.875 558.011719 530.683594 C 554.667969 531.183594 551.40625 530.769531 548.308594 529.488281 C 540.824219 526.382812 539.554688 518.03125 545.78125 512.808594 C 546.992188 511.792969 548.351562 510.886719 549.773438 510.199219 C 563.332031 503.644531 574.808594 494.164062 586.160156 484.496094 C 587.941406 482.976562 589.730469 481.480469 591.671875 480.15625 C 594.101562 478.496094 596.75 477.96875 599.574219 478.515625 C 601.75 478.9375 603.917969 479.472656 605.933594 480.46875 Z M 605.933594 480.46875 " fill-opacity="1" fill-rule="nonzero"/><path fill="#f04d26" d="M 911.570312 320.691406 C 909.753906 319.957031 908.65625 318.300781 907.125 317.179688 C 898.640625 310.96875 889.28125 306.707031 879.121094 304.175781 C 873.1875 302.699219 867.183594 301.644531 861.027344 301.496094 C 858.734375 301.441406 856.441406 300.773438 854.105469 300.941406 C 852.609375 301.046875 852.007812 300.390625 852.035156 298.902344 C 852.085938 296.144531 852.054688 293.390625 852.03125 290.632812 C 852.023438 289.785156 851.933594 288.941406 851.878906 288.101562 C 852.007812 284.667969 851.867188 281.214844 852.714844 277.839844 C 853.554688 276.335938 855 275.648438 856.53125 275.191406 C 868.484375 271.632812 880.484375 271.402344 892.515625 274.804688 C 893.863281 275.1875 895.042969 275.863281 896.113281 276.757812 C 899.277344 281.578125 901.445312 286.894531 903.582031 292.199219 C 907.289062 301.394531 910.0625 310.871094 911.570312 320.691406 Z M 911.570312 320.691406 " fill-opacity="1" fill-rule="nonzero"/><path fill="#4e1c19" d="M 842.429688 544.332031 C 843.398438 542.804688 843.191406 541.074219 843.242188 539.402344 C 843.320312 536.976562 843.140625 534.550781 843.609375 532.132812 C 844.292969 528.609375 846.191406 526.726562 849.777344 526.4375 C 851.984375 526.257812 854.210938 526.339844 856.429688 526.300781 C 862.625 531.648438 868.839844 536.980469 875.960938 541.105469 C 878.808594 542.757812 881.710938 544.316406 884.578125 545.929688 C 886.25 546.867188 887.886719 547.863281 889.265625 549.214844 C 892.960938 552.839844 893.277344 557.847656 890.023438 561.875 C 887.539062 564.949219 884.195312 566.40625 880.335938 566.738281 C 877.566406 566.972656 874.808594 566.808594 872.105469 566.09375 C 858.773438 562.570312 846.324219 556.972656 834.460938 550.015625 C 836.691406 547.519531 840.21875 546.847656 842.429688 544.332031 Z M 842.429688 544.332031 " fill-opacity="1" fill-rule="nonzero"/><path fill="#ee5128" d="M 744.691406 424.171875 C 750.257812 428.628906 755.902344 432.949219 762.210938 436.355469 C 765.957031 438.375 769.847656 440.050781 774.371094 441.804688 C 770.902344 443.953125 767.410156 444.949219 763.765625 446.402344 C 765.320312 448.113281 767.097656 449.039062 768.8125 450 C 774.855469 453.390625 781.238281 455.996094 787.839844 458.085938 C 799.3125 461.710938 811.078125 463.835938 823.015625 465.210938 C 830.957031 466.125 838.898438 466.515625 846.871094 466.421875 C 847.292969 466.417969 847.710938 466.472656 848.507812 466.523438 C 846.550781 472.109375 843.21875 476.75 840.457031 481.679688 C 840.328125 482.472656 839.914062 482.953125 839.066406 482.96875 C 837.15625 480.914062 834.433594 481.542969 832.160156 481.230469 C 825.226562 480.273438 818.441406 478.78125 811.726562 476.886719 C 802.316406 474.234375 793.1875 470.792969 784.558594 466.171875 C 776.890625 462.0625 769.554688 457.449219 762.886719 451.773438 C 758.667969 448.183594 754.78125 444.316406 751.128906 440.179688 C 749.667969 439.625 748.480469 438.839844 748.492188 437.046875 C 746.070312 433.535156 743.867188 429.867188 740.890625 426.769531 C 739.269531 425.953125 738.039062 424.816406 737.699219 422.9375 C 740.117188 422.875 742.28125 424.222656 744.691406 424.171875 Z M 744.691406 424.171875 " fill-opacity="1" fill-rule="nonzero"/><path fill="#481816" d="M 751.605469 317.601562 C 748.105469 316.546875 744.609375 315.492188 741.113281 314.4375 C 739.824219 310.785156 739.671875 306.9375 739.238281 303.148438 C 737.988281 292.214844 737.921875 281.296875 740.191406 270.460938 C 740.824219 267.441406 741.640625 264.476562 743.195312 261.765625 C 744.882812 258.820312 747.402344 257.421875 750.792969 257.410156 C 753.179688 257.398438 755.4375 257.976562 757.632812 258.765625 C 771.355469 263.699219 783.667969 271.148438 795.207031 279.960938 C 793.089844 283.976562 790.96875 287.988281 788.851562 292.003906 C 787.089844 292.597656 786.113281 291.242188 784.964844 290.390625 C 777.535156 284.867188 769.929688 279.644531 761.222656 276.253906 C 753.414062 273.214844 751.421875 274.488281 750.15625 282.988281 C 748.628906 293.238281 750.046875 303.296875 751.699219 313.371094 C 751.925781 314.75 752.804688 316.222656 751.605469 317.601562 Z M 751.605469 317.601562 " fill-opacity="1" fill-rule="nonzero"/><path fill="#451815" d="M 888.410156 496.21875 C 890.675781 497.105469 892.957031 497.96875 895.214844 498.882812 C 904.410156 502.617188 914.011719 504.824219 923.753906 506.515625 C 925.4375 506.808594 927.070312 507.269531 928.613281 507.980469 C 933.292969 510.144531 935.226562 514.761719 933.53125 519.660156 C 932.269531 523.304688 929.695312 525.703125 926.210938 527.183594 C 923.652344 528.269531 920.960938 528.867188 918.191406 529.066406 C 912.339844 529.496094 906.511719 529.074219 900.703125 528.402344 C 893.324219 527.546875 885.941406 526.714844 878.703125 524.964844 C 878.890625 523.335938 880.347656 522.863281 881.40625 522.058594 C 884.789062 519.480469 885.550781 517.273438 884.214844 513.203125 C 883.320312 510.488281 882.15625 507.855469 881.628906 505.03125 C 880.800781 500.601562 883.984375 496.496094 888.410156 496.21875 Z M 888.410156 496.21875 " fill-opacity="1" fill-rule="nonzero"/><path fill="#f04d26" d="M 888.410156 496.21875 C 887.105469 496.703125 885.9375 497.417969 884.851562 498.289062 C 882.664062 500.046875 881.847656 502.265625 882.429688 505.046875 C 882.910156 507.34375 883.738281 509.515625 884.566406 511.695312 C 886.808594 517.570312 886.003906 520.027344 880.761719 523.476562 C 880.054688 523.941406 879.390625 524.464844 878.703125 524.964844 C 868.769531 523.148438 858.90625 521.070312 849.449219 517.414062 C 845.980469 516.21875 844.328125 513.207031 842.449219 510.417969 C 842.753906 509.484375 843.359375 508.75 844.066406 508.101562 C 851.152344 501.632812 856.757812 493.980469 861.785156 485.867188 C 862.273438 485.074219 862.644531 484.152344 863.574219 483.710938 C 863.949219 483.304688 864.328125 482.90625 864.703125 482.5 C 872.136719 487.890625 880.078125 492.382812 888.410156 496.21875 Z M 888.410156 496.21875 " fill-opacity="1" fill-rule="nonzero"/><path fill="#471915" d="M 616.570312 521.300781 C 625.394531 525.132812 634.65625 526.316406 644.191406 525.894531 C 645.503906 528.28125 644.246094 530.234375 643.121094 532.207031 C 641.535156 531.558594 640.503906 532.070312 639.425781 533.441406 C 634.210938 540.0625 628.253906 545.964844 621.570312 551.105469 C 616.570312 554.949219 611.261719 558.234375 604.921875 559.417969 C 601.929688 559.976562 598.992188 559.765625 596.203125 558.453125 C 591.597656 556.289062 589.90625 551.574219 592.070312 546.976562 C 593.1875 544.601562 595.011719 542.835938 597.074219 541.296875 C 604.195312 535.988281 610.324219 529.691406 615.664062 522.609375 C 615.988281 522.1875 616.269531 521.738281 616.570312 521.300781 Z M 616.570312 521.300781 " fill-opacity="1" fill-rule="nonzero"/><path fill="#441512" d="M 896.109375 276.761719 C 891.9375 275.589844 887.804688 274.265625 883.46875 273.828125 C 872.902344 272.765625 862.539062 273.269531 852.710938 277.84375 C 853.257812 267.792969 855.015625 258 858.921875 248.671875 C 859.289062 247.796875 859.773438 246.949219 860.324219 246.175781 C 862.363281 243.320312 865.171875 242.492188 868.457031 243.769531 C 870.558594 244.589844 872.425781 245.832031 874.117188 247.308594 C 883.554688 255.542969 890.558594 265.609375 896.109375 276.761719 Z M 896.109375 276.761719 " fill-opacity="1" fill-rule="nonzero"/><path fill="#ef4b24" d="M 763.921875 407.648438 C 760.128906 408.835938 756.304688 409.792969 752.269531 409.582031 C 751.023438 409.515625 749.761719 409.617188 748.507812 409.644531 C 743.898438 409.03125 739.324219 408.273438 735.105469 406.640625 C 734.792969 405.863281 735.238281 405.644531 735.546875 405.394531 C 745.714844 397.121094 752.570312 386.496094 757.453125 374.476562 C 759.175781 370.238281 760.707031 365.929688 762.042969 361.550781 C 762.347656 361.492188 762.835938 361.285156 762.933594 361.398438 C 765.152344 364.097656 767.660156 366.492188 770.480469 368.539062 C 771.890625 369.5625 771.640625 370.445312 770.941406 371.933594 C 767.671875 378.902344 764.640625 385.992188 763.34375 393.65625 C 762.550781 398.34375 762.4375 403.039062 763.921875 407.648438 Z M 763.921875 407.648438 " fill-opacity="1" fill-rule="nonzero"/><path fill="#ed4d26" d="M 643.121094 532.207031 C 643 530.023438 644.160156 528.054688 644.191406 525.894531 C 653.855469 524.816406 662.933594 522.085938 670.875 516.257812 C 671.535156 515.773438 672.058594 516.09375 672.65625 516.125 C 680.066406 519.265625 687.183594 523.027344 694.453125 526.46875 C 694.976562 526.714844 695.289062 527.085938 695.429688 527.628906 C 680.3125 540.46875 660.367188 540.503906 643.121094 532.207031 Z M 643.121094 532.207031 " fill-opacity="1" fill-rule="nonzero"/><path fill="#ed4d24" d="M 842.429688 544.332031 C 842.179688 546.175781 840.636719 546.894531 839.3125 547.683594 C 837.777344 548.597656 836.089844 549.25 834.464844 550.015625 C 825.042969 545.414062 816.25 539.808594 807.953125 533.410156 C 807.121094 532.769531 806.269531 532.144531 805.425781 531.511719 C 801.097656 527.265625 797.457031 522.460938 794.101562 517.425781 C 792.1875 516.371094 792.066406 514.300781 791.355469 512.570312 C 791.476562 510.929688 790.535156 509.539062 790.15625 507.34375 C 794.96875 510.421875 798.957031 513.871094 803.214844 516.933594 C 807.503906 520.015625 811.699219 523.21875 816 526.285156 C 820.386719 529.414062 824.949219 532.300781 829.242188 535.546875 C 833.472656 538.742188 838.160156 541.21875 842.429688 544.332031 Z M 842.429688 544.332031 " fill-opacity="1" fill-rule="nonzero"/><g clip-path="url(#61d73f1ee4)"><path fill="#451814" d="M 956.085938 424.347656 C 948.046875 424.179688 940.296875 417.765625 938.722656 409.972656 C 939.28125 406.769531 941.1875 404.675781 944.078125 403.335938 C 948.058594 401.488281 952.128906 400.050781 956.613281 400.363281 C 958.621094 400.476562 960.625 400.671875 962.523438 401.398438 C 965.277344 402.453125 966.695312 404.371094 966.296875 407.292969 C 965.324219 414.382812 962.40625 420.414062 956.085938 424.347656 Z M 956.085938 424.347656 " fill-opacity="1" fill-rule="nonzero"/></g><path fill="#2d0c06" d="M 935.660156 440.941406 C 932.277344 440.808594 928.867188 441.070312 925.527344 440.195312 C 922.203125 439.324219 919.066406 438.097656 916.503906 435.71875 C 914.855469 434.1875 913.59375 432.425781 913.613281 430.109375 C 914.082031 429.835938 914.371094 429.726562 914.625 430.019531 C 921.15625 437.460938 929.5625 438.683594 938.75 437.269531 C 940.320312 437.023438 941.867188 436.625 943.429688 436.332031 C 944.011719 436.222656 944.730469 435.945312 944.851562 436.957031 C 942.160156 439.140625 939.160156 440.617188 935.660156 440.941406 Z M 935.660156 440.941406 " fill-opacity="1" fill-rule="nonzero"/><path fill="#fdaa5c" d="M 737.703125 422.9375 C 739.085938 423.949219 740.042969 425.316406 740.894531 426.773438 C 740.636719 427.25 740.316406 427.765625 739.792969 427.863281 C 736.53125 428.441406 733.445312 428.050781 730.78125 425.90625 C 730.058594 425.328125 729.199219 424.675781 729.515625 423.535156 C 729.84375 422.367188 730.839844 422.316406 731.828125 422.300781 C 732.558594 422.285156 733.34375 422.414062 733.851562 421.671875 C 735.25 421.742188 736.582031 422.011719 737.703125 422.9375 Z M 737.703125 422.9375 " fill-opacity="1" fill-rule="nonzero"/><path fill="#fdd2a6" d="M 519.976562 339.871094 C 520.628906 340.878906 520.519531 341.984375 520.398438 343.089844 C 519.617188 342.097656 519.796875 340.984375 519.976562 339.871094 Z M 519.976562 339.871094 " fill-opacity="1" fill-rule="nonzero"/><path fill="#ffeed2" d="M 791.355469 512.570312 C 793.019531 513.765625 793.1875 515.808594 794.101562 517.425781 C 788.667969 519.238281 783.066406 520.367188 777.441406 521.300781 C 770.765625 522.40625 764.054688 523.199219 757.261719 523.335938 C 754.964844 523.382812 752.65625 523.964844 750.3125 523.878906 C 745.339844 523.703125 740.402344 523.1875 735.453125 522.734375 C 730.914062 522.3125 726.445312 521.660156 721.980469 520.761719 C 714.164062 519.1875 706.585938 516.84375 699.210938 513.859375 C 695.765625 512.46875 692.289062 511.179688 688.769531 509.996094 C 687.761719 509.65625 686.710938 509.453125 685.957031 508.617188 C 686.121094 508.367188 686.339844 508.175781 686.609375 508.046875 C 687.289062 507.789062 688.003906 507.628906 688.6875 507.367188 C 689.671875 507.121094 690.644531 506.511719 691.683594 507.191406 C 692.855469 507.203125 694.027344 507.28125 695.191406 507.222656 C 706.335938 506.636719 717.242188 508.21875 728.046875 510.753906 C 736.9375 512.835938 745.828125 514.980469 754.910156 516.023438 C 762.210938 516.859375 769.554688 516.820312 776.867188 515.886719 C 780.761719 515.390625 784.65625 514.859375 788.445312 513.753906 C 789.464844 513.453125 790.515625 513.277344 791.355469 512.570312 Z M 791.355469 512.570312 " fill-opacity="1" fill-rule="nonzero"/><path fill="#ffedd0" d="M 863.578125 483.710938 C 861.621094 488.339844 858.523438 492.265625 855.652344 496.3125 C 851.90625 501.601562 847.421875 506.25 842.449219 510.417969 C 838.628906 505.464844 835.382812 500.144531 832.28125 494.722656 C 831.394531 493.171875 831.496094 492.148438 832.675781 490.816406 C 834.910156 488.292969 837.300781 485.882812 839.066406 482.972656 C 839.53125 482.542969 839.996094 482.109375 840.457031 481.683594 C 846.582031 482.550781 852.746094 482.347656 858.898438 482.347656 C 859.851562 482.347656 860.839844 482.402344 861.753906 482.191406 C 863.164062 481.859375 863.414062 482.671875 863.578125 483.710938 Z M 863.578125 483.710938 " fill-opacity="1" fill-rule="nonzero"/><path fill="#eb4d24" d="M 691.683594 507.1875 C 690.621094 507.464844 689.554688 507.742188 688.492188 508.019531 C 687.890625 508.402344 687.101562 508.011719 686.53125 508.507812 C 686.328125 508.472656 686.136719 508.507812 685.960938 508.613281 C 683.523438 508.539062 681.277344 509.507812 678.925781 509.894531 C 679.546875 508.421875 681.128906 508 682.160156 506.957031 C 686.671875 502.394531 689.964844 497.027344 692.859375 491.375 C 693.039062 491.019531 693.023438 490.546875 693.824219 490.285156 C 693.546875 494.367188 693.757812 498.34375 692.644531 502.25 C 692.1875 503.855469 691.554688 505.457031 691.683594 507.1875 Z M 691.683594 507.1875 " fill-opacity="1" fill-rule="nonzero"/><path fill="#fea150" d="M 714.085938 424.9375 C 710.914062 424.671875 707.773438 423.445312 704.714844 422.027344 C 703.613281 421.515625 702.921875 420.507812 703.296875 419.152344 C 703.671875 417.828125 704.78125 417.835938 705.863281 417.832031 C 709.480469 417.824219 712.644531 419.152344 715.570312 421.15625 C 716.5625 421.835938 717.550781 422.644531 717.105469 423.988281 C 716.652344 425.367188 715.308594 424.667969 714.085938 424.9375 Z M 714.085938 424.9375 " fill-opacity="1" fill-rule="nonzero"/><path fill="#fea556" d="M 729.617188 435.078125 C 726.949219 435.015625 724.445312 434.265625 721.992188 433.289062 C 721.183594 432.964844 720.578125 432.386719 719.984375 431.78125 C 719.449219 431.230469 719.011719 430.632812 719.324219 429.8125 C 719.625 429.023438 720.289062 428.765625 721.078125 428.707031 C 725.039062 428.414062 728.570312 429.535156 731.65625 432 C 732.269531 432.488281 733.203125 433.015625 732.929688 434.007812 C 732.609375 435.191406 731.503906 435.046875 730.566406 435.074219 C 730.25 435.085938 729.933594 435.078125 729.617188 435.078125 Z M 729.617188 435.078125 " fill-opacity="1" fill-rule="nonzero"/><path fill="#fea65b" d="M 748.492188 437.046875 C 749.371094 438.089844 750.25 439.136719 751.128906 440.179688 C 749.769531 442.105469 747.976562 442.503906 745.828125 441.710938 C 744.4375 441.199219 743.019531 440.75 741.640625 440.207031 C 740.644531 439.8125 740.097656 439.035156 740.347656 437.9375 C 740.605469 436.789062 741.617188 436.996094 742.429688 436.992188 C 744.449219 436.984375 746.472656 437.023438 748.492188 437.046875 Z M 748.492188 437.046875 " fill-opacity="1" fill-rule="nonzero"/><path fill="#fea559" d="M 693.195312 423.597656 C 695.675781 423.523438 697.628906 424.855469 699.5625 426.117188 C 700.589844 426.78125 700.417969 427.710938 699.277344 428.296875 C 698.828125 428.527344 698.28125 428.636719 697.769531 428.675781 C 695.511719 428.859375 693.355469 428.382812 691.300781 427.488281 C 690.242188 427.027344 689.003906 426.390625 689.332031 424.988281 C 689.605469 423.816406 690.847656 423.675781 691.925781 423.601562 C 692.347656 423.574219 692.773438 423.597656 693.195312 423.597656 Z M 693.195312 423.597656 " fill-opacity="1" fill-rule="nonzero"/><path fill="#fea657" d="M 707.996094 431.261719 C 710.21875 431.476562 712.644531 432.351562 714.460938 434.523438 C 715.425781 435.675781 715.25 436.289062 713.769531 436.765625 C 712.402344 437.207031 711.089844 436.964844 709.734375 436.515625 C 708.3125 436.046875 706.953125 435.472656 705.714844 434.65625 C 705.011719 434.195312 704.359375 433.546875 704.59375 432.554688 C 704.878906 431.363281 705.855469 431.273438 706.84375 431.261719 C 707.0625 431.261719 707.273438 431.261719 707.996094 431.261719 Z M 707.996094 431.261719 " fill-opacity="1" fill-rule="nonzero"/><path fill="#fea256" d="M 735.960938 446.589844 C 734.265625 446.90625 732.675781 446.058594 731.105469 445.191406 C 730.148438 444.660156 729.855469 443.792969 730.140625 442.769531 C 730.40625 441.804688 731.171875 441.515625 732.082031 441.496094 C 734.605469 441.445312 736.785156 442.472656 738.855469 443.746094 C 739.496094 444.140625 739.925781 444.871094 739.808594 445.632812 C 739.664062 446.546875 738.808594 446.5625 738.066406 446.582031 C 737.433594 446.601562 736.800781 446.589844 735.960938 446.589844 Z M 735.960938 446.589844 " fill-opacity="1" fill-rule="nonzero"/><path fill="#ffefd2" d="M 751.605469 317.601562 C 750.507812 311.136719 749.300781 304.691406 748.894531 298.121094 C 748.519531 292.054688 748.613281 286.027344 749.8125 280.0625 C 751.105469 273.632812 753.113281 272.527344 759.429688 274.683594 C 766.816406 277.203125 773.410156 281.210938 779.820312 285.589844 C 782.867188 287.675781 785.546875 290.277344 788.847656 292 C 789.402344 293.21875 790.5625 293.839844 791.5 294.679688 C 800.097656 302.402344 807.769531 310.863281 812.699219 321.480469 C 815.261719 326.996094 814.753906 325.878906 810.917969 328.84375 C 799.429688 337.730469 788.996094 347.652344 780.542969 359.53125 C 780.300781 359.875 780.015625 360.1875 779.460938 360.875 C 776.171875 357.640625 772.828125 354.625 769.871094 351.195312 C 761.640625 341.644531 755.683594 330.855469 752.183594 318.726562 C 752.066406 318.332031 751.800781 317.976562 751.605469 317.601562 Z M 751.605469 317.601562 " fill-opacity="1" fill-rule="nonzero"/><path fill="#45130a" d="M 860.171875 391.546875 C 860.246094 387.714844 861.308594 384.214844 863.707031 381.1875 C 868.050781 375.710938 875.859375 376.023438 879.640625 381.875 C 881.953125 385.453125 882.851562 389.46875 882.839844 393.699219 C 882.835938 394.324219 882.875 395.097656 882.0625 395.230469 C 881.296875 395.351562 881 394.660156 880.753906 394.078125 C 880.089844 392.515625 879.511719 390.914062 878.792969 389.378906 C 877.980469 387.636719 876.910156 386.046875 875.402344 384.804688 C 872.664062 382.558594 869.570312 382.714844 867.152344 385.3125 C 865.21875 387.386719 864.203125 389.953125 863.570312 392.675781 C 863.285156 393.914062 863.066406 395.175781 862.808594 396.421875 C 862.71875 396.851562 862.519531 397.25 862.054688 397.351562 C 861.425781 397.484375 861.101562 397.070312 860.867188 396.558594 C 860.132812 394.957031 860.210938 393.25 860.171875 391.546875 Z M 860.171875 391.546875 " fill-opacity="1" fill-rule="nonzero"/><path fill="#400d05" d="M 929.816406 387.226562 C 929.277344 386.953125 928.992188 386.90625 928.941406 386.769531 C 927.457031 382.867188 927.476562 378.910156 928.738281 374.976562 C 929.238281 373.421875 930.183594 372.09375 932.042969 371.949219 C 933.808594 371.816406 935.117188 372.722656 936.042969 374.109375 C 938.292969 377.472656 938.898438 381.34375 939.246094 385.273438 C 939.289062 385.789062 939.078125 386.367188 938.425781 386.414062 C 937.9375 386.449219 937.742188 386.015625 937.605469 385.597656 C 936.941406 383.585938 936.285156 381.570312 935.214844 379.726562 C 934.589844 378.652344 933.964844 377.175781 932.554688 377.398438 C 931.136719 377.621094 930.902344 379.222656 930.691406 380.449219 C 930.316406 382.625 930.117188 384.832031 929.816406 387.226562 Z M 929.816406 387.226562 " fill-opacity="1" fill-rule="nonzero"/><path fill="#fea75b" d="M 886.53125 321.167969 C 886.488281 322.636719 886.65625 323.65625 885.660156 324.253906 C 884.589844 324.898438 883.886719 324.0625 883.128906 323.542969 C 879.992188 321.40625 878.285156 318.367188 877.65625 314.6875 C 877.492188 313.742188 877.457031 312.695312 878.417969 312.121094 C 879.390625 311.535156 880.53125 311.535156 881.402344 312.253906 C 884.363281 314.703125 886.234375 317.78125 886.53125 321.167969 Z M 886.53125 321.167969 " fill-opacity="1" fill-rule="nonzero"/><path fill="#fea555" d="M 897.988281 338.199219 C 898.015625 339.359375 897.980469 340.089844 897.464844 340.714844 C 896.78125 341.542969 896.148438 341.957031 895.082031 341.121094 C 892.304688 338.933594 890.1875 333.203125 891.054688 329.898438 C 891.394531 328.585938 892.257812 328.316406 893.382812 329.199219 C 896.4375 331.585938 897.585938 334.921875 897.988281 338.199219 Z M 897.988281 338.199219 " fill-opacity="1" fill-rule="nonzero"/><path fill="#fea453" d="M 885.230469 339.363281 C 885.28125 341.003906 884.082031 341.757812 882.402344 340.917969 C 880.792969 340.117188 879.296875 339.046875 878.199219 337.578125 C 877.113281 336.128906 876.265625 334.503906 875.785156 332.765625 C 875.355469 331.207031 876.417969 330.15625 877.847656 330.5 C 881.09375 331.28125 885.128906 336.125 885.230469 339.363281 Z M 885.230469 339.363281 " fill-opacity="1" fill-rule="nonzero"/><path fill="#fea85b" d="M 866.898438 325.210938 C 863.933594 324.53125 860.828125 323.125 858.984375 319.839844 C 857.984375 318.054688 858.625 317.042969 860.644531 316.90625 C 864.113281 316.667969 868.738281 319.988281 869.585938 323.328125 C 869.917969 324.621094 869.316406 325.152344 866.898438 325.210938 Z M 866.898438 325.210938 " fill-opacity="1" fill-rule="nonzero"/><path fill="#feb165" d="M 860.316406 304.660156 C 860.351562 303.050781 861.050781 302.453125 862.515625 303.085938 C 864.976562 304.140625 867.121094 305.679688 868.621094 307.96875 C 869.164062 308.796875 869.375 309.714844 869.222656 310.703125 C 869.132812 311.285156 868.792969 311.632812 868.203125 311.738281 C 865.625 312.207031 860.253906 307.390625 860.316406 304.660156 Z M 860.316406 304.660156 " fill-opacity="1" fill-rule="nonzero"/><path fill="#fe9f50" d="M 899.269531 322.632812 C 899.128906 323.3125 899.796875 324.652344 898.394531 325.082031 C 897.050781 325.488281 896.183594 324.546875 895.601562 323.496094 C 894.628906 321.742188 893.726562 319.9375 893.574219 317.890625 C 893.5 316.84375 893.402344 315.671875 894.652344 315.179688 C 895.765625 314.742188 896.441406 315.597656 897.054688 316.296875 C 898.570312 318.015625 899.496094 319.980469 899.269531 322.632812 Z M 899.269531 322.632812 " fill-opacity="1" fill-rule="nonzero"/><path fill="#fea457" d="M 896.144531 354.671875 C 896.027344 355.597656 896.339844 356.464844 895.546875 356.90625 C 894.707031 357.371094 893.90625 357.074219 893.226562 356.457031 C 891.109375 354.550781 889.539062 352.367188 889.714844 349.339844 C 889.808594 347.65625 890.894531 347 892.207031 347.976562 C 894.496094 349.675781 896.007812 351.910156 896.144531 354.671875 Z M 896.144531 354.671875 " fill-opacity="1" fill-rule="nonzero"/><path fill="#fea555" d="M 906.976562 349.867188 C 906.796875 350.9375 907.507812 352.601562 905.644531 353.179688 C 904.515625 353.527344 903.625 352.429688 902.875 350.257812 C 902.292969 348.582031 902.472656 346.894531 902.582031 345.207031 C 902.640625 344.308594 903.308594 343.570312 904.148438 343.359375 C 905.136719 343.109375 905.648438 343.976562 906.09375 344.695312 C 906.597656 345.511719 906.984375 347.882812 906.976562 349.867188 Z M 906.976562 349.867188 " fill-opacity="1" fill-rule="nonzero"/><path fill="#fea656" d="M 908.953125 332.558594 C 908.894531 333.796875 908.914062 334.867188 908.765625 335.914062 C 908.648438 336.714844 908.050781 337.195312 907.21875 337.285156 C 906.53125 337.355469 905.878906 337.164062 905.648438 336.480469 C 904.878906 334.199219 903.800781 331.933594 904.878906 329.4375 C 905.226562 328.628906 905.632812 327.828125 906.640625 327.847656 C 907.726562 327.867188 908.433594 328.640625 908.675781 329.582031 C 908.9375 330.589844 908.886719 331.679688 908.953125 332.558594 Z M 908.953125 332.558594 " fill-opacity="1" fill-rule="nonzero"/><path fill="#d0a39b" d="M 953.367188 407.542969 C 951.957031 407.535156 950.574219 407.335938 949.296875 406.796875 C 947.972656 406.238281 947.882812 405.085938 949.148438 404.480469 C 952.8125 402.738281 956.675781 402.355469 960.652344 403.164062 C 961.203125 403.277344 961.691406 403.558594 961.839844 404.101562 C 962.03125 404.816406 961.566406 405.292969 961.03125 405.695312 C 960.15625 406.351562 959.128906 406.679688 958.097656 406.882812 C 956.535156 407.1875 954.945312 407.328125 953.367188 407.542969 Z M 953.367188 407.542969 " fill-opacity="1" fill-rule="nonzero"/><path fill="#fbd4a9" d="M 686.527344 508.507812 C 687.078125 507.925781 687.765625 507.898438 688.488281 508.019531 C 687.953125 508.65625 687.246094 508.609375 686.527344 508.507812 Z M 686.527344 508.507812 " fill-opacity="1" fill-rule="nonzero"/><path fill="#facfa3" d="M 759.542969 289.53125 C 767.875 294.449219 773.03125 302.269531 778.828125 310.121094 C 776.542969 310.765625 774.746094 310.410156 772.996094 310.519531 C 770.894531 310.648438 770.46875 311.167969 771.300781 313.09375 C 772.691406 316.316406 774.230469 319.472656 776.871094 321.929688 C 778.425781 323.375 779.933594 324.867188 781.800781 326.660156 C 780.035156 327.300781 778.6875 327.570312 777.277344 327.8125 C 773.925781 328.390625 773.777344 329.90625 774.570312 332.199219 C 775.488281 334.855469 777.324219 336.714844 779.1875 338.539062 C 780.917969 340.234375 782.851562 341.773438 785.074219 342.851562 C 786.082031 343.339844 786.25 343.929688 785.46875 344.816406 C 784.375 346.054688 783.253906 346.46875 781.53125 345.925781 C 776.324219 344.285156 772.902344 340.707031 770.316406 336.136719 C 768.09375 332.203125 767.039062 327.933594 766.355469 323.476562 C 765.691406 319.128906 766.070312 314.777344 765.742188 310.449219 C 765.324219 304.925781 763.742188 299.640625 761.617188 294.523438 C 760.925781 292.859375 760.234375 291.195312 759.542969 289.53125 Z M 759.542969 289.53125 " fill-opacity="1" fill-rule="nonzero"/></svg>