<?xml version="1.0" encoding="UTF-8"?>
<svg id="Layer_2" data-name="Layer 2" xmlns="http://www.w3.org/2000/svg" xmlns:xlink="http://www.w3.org/1999/xlink" viewBox="0 0 390 432">
  <defs>
    <style>
      .cls-1 {
        fill: none;
      }

      .cls-2 {
        fill: #f25a6c;
      }

      .cls-3 {
        fill: #edb451;
      }

      .cls-4 {
        fill: #ff6d7a;
      }

      .cls-5 {
        fill: #fc6;
      }

      .cls-6 {
        fill: #ffde76;
      }

      .cls-7 {
        clip-path: url(#clippath);
      }
    </style>
    <clipPath id="clippath">
      <rect class="cls-1" width="390" height="432"/>
    </clipPath>
  </defs>
  <g id="Layer_1-2" data-name="Layer 1">
    <g>
      <g class="cls-7">
        <path class="cls-4" d="M360.46,110.21h-25.89c2.05-3.74,3.46-8.29,4.16-13.56,2.06-15.61-2.39-36.78-11.61-55.24-10.53-21.11-25.08-35.08-40.96-39.34-41.36-11.07-69.18,25.29-81.39,46.26-3.05-1.04-6.32-1.6-9.71-1.6s-6.66.57-9.72,1.6c-12.23-20.96-40.08-57.31-81.41-46.25-15.89,4.26-30.43,18.23-40.96,39.34-9.21,18.46-13.66,39.64-11.6,55.24.7,5.28,2.11,9.82,4.16,13.56h-25.9C13.31,110.21.04,123.49.04,139.83v30.51c0,15.76,12.35,28.67,27.88,29.56v196.61c0,19.57,15.9,35.48,35.44,35.48h263.35c19.55,0,35.45-15.92,35.45-35.48v-196.61c15.52-.89,27.88-13.8,27.88-29.56v-30.51c0-16.33-13.27-29.61-29.58-29.61Z"/>
      </g>
      <path class="cls-5" d="M164.6,77.19c0-13.41,8.7-24.81,20.73-28.88-12.23-20.96-40.08-57.31-81.41-46.25-15.89,4.26-30.43,18.23-40.96,39.34-9.21,18.46-13.66,39.64-11.6,55.24.7,5.28,2.11,9.82,4.16,13.56h109.08v-33.02h0Z"/>
      <path class="cls-5" d="M327.12,41.41c-10.54-21.11-25.08-35.08-40.97-39.34-41.36-11.07-69.18,25.29-81.39,46.26,12.03,4.07,20.71,15.47,20.71,28.88v33.02h109.09c2.05-3.74,3.46-8.29,4.16-13.56,2.06-15.61-2.39-36.78-11.6-55.24Z"/>
      <path class="cls-5" d="M154.56,199.95h80.97v232.04h-80.97v-232.04Z"/>
      <path class="cls-5" d="M141.85,110.21h106.4v89.73h-106.4v-89.73Z"/>
      <path class="cls-2" d="M154.56,199.95H29.62c-.57,0-1.14-.02-1.7-.05v17.67h126.64v-17.61Z"/>
      <path class="cls-2" d="M360.46,199.95h-124.94v17.61h126.64v-17.67c-.57.03-1.13.05-1.7.05Z"/>
      <path class="cls-3" d="M154.56,199.95h80.97v17.61h-80.97v-17.61Z"/>
      <path class="cls-3" d="M320.67,65.51c-23.3-12.89-64.47-3.61-95.19,13.56v31.15h109.09c.19-.35.38-.7.56-1.07,3.12-6.31,3.74-13.54,2.36-20.44-2.53-12.62-10.16-19.51-16.82-23.2Z"/>
      <path class="cls-3" d="M69.43,65.51c23.3-12.89,64.47-3.61,95.19,13.56v31.15H55.53c-.19-.35-.38-.7-.56-1.07-3.12-6.31-3.74-13.54-2.36-20.44,2.53-12.62,10.16-19.51,16.82-23.2Z"/>
      <path class="cls-6" d="M225.48,110.21v-33.02c0-16.81-13.65-30.48-30.42-30.48s-30.45,13.67-30.45,30.48v33.02h60.88Z"/>
    </g>
  </g>
</svg>
